<?xml version="1.0" encoding="utf-8"?>
<!-- Generator: Adobe Illustrator 27.0.0, SVG Export Plug-In . SVG Version: 6.00 Build 0)  -->
<svg version="1.1" id="Layer_1" xmlns="http://www.w3.org/2000/svg" xmlns:xlink="http://www.w3.org/1999/xlink" x="0px" y="0px"
	 viewBox="0 0 48 48" style="enable-background:new 0 0 48 48;" xml:space="preserve">
<style type="text/css">
	.st0{fill:none;}
	.st1{fill-rule:evenodd;clip-rule:evenodd;fill:#FFFFFF;}
</style>
<circle class="st0" cx="24" cy="23.7" r="23"/>
<path class="st1" d="M34.1,14.1c-2.5-2.5-6.2-4.1-9.9-4.1c-7.7,0-14.1,6.3-14.1,14.1c0,2.5,0.6,5,1.8,6.9l-2.1,7.4l7.4-2.1
	c2.1,1,4.4,1.6,6.6,1.6l0,0c7.7,0,14-6.3,14-14C38.1,20.2,36.6,16.6,34.1,14.1 M24.1,35.6L24.1,35.6C22,35.6,20,35,18.2,34l-0.3-0.3
	l-4.4,1.2l1.2-4.3l-0.3-0.3c-1.2-1.8-1.8-4-1.8-6.2c0-6.3,5.2-11.6,11.6-11.6c3.1,0,6,1.2,8.3,3.4s3.4,5.2,3.4,8.3
	C35.7,30.3,30.6,35.6,24.1,35.6 M30.6,26.9c-0.3-0.1-2.1-1-2.4-1c-0.3-0.1-0.6-0.1-0.7,0.1c-0.1,0.3-0.9,1-1,1.5
	c-0.1,0.1-0.3,0.3-0.7,0.1C25.5,27.5,24.3,27,23,26c-1-0.9-1.6-2.1-2.1-2.4c-0.1-0.3,0-0.6,0.1-0.7s0.3-0.3,0.6-0.6
	c0.1-0.1,0.1-0.3,0.3-0.6c0.1-0.1,0.1-0.3,0-0.6c-0.1-0.1-0.7-1.8-1-2.5S20.3,18,20.2,18s-0.3,0-0.7,0c-0.4,0-0.7,0.1-0.9,0.3
	c-0.3,0.3-1.2,1.2-1.2,2.9c0,1.6,1.3,3.4,1.5,3.7c0.1,0.1,2.5,3.8,6,5.3c0.7,0.3,1.5,0.6,2.1,0.7c0.7,0.3,1.6,0.1,2.2,0.1
	c0.7-0.1,2.1-0.7,2.4-1.6c0.3-0.7,0.3-1.5,0.1-1.6C31.2,27,30.9,27,30.6,26.9"/>
</svg>
