<?xml version="1.0" encoding="utf-8"?>
<!-- Generator: Adobe Illustrator 27.0.0, SVG Export Plug-In . SVG Version: 6.00 Build 0)  -->
<svg version="1.1" id="Layer_1" xmlns="http://www.w3.org/2000/svg" xmlns:xlink="http://www.w3.org/1999/xlink" x="0px" y="0px" viewBox="0 0 48 48" style="enable-background: new 0 0 48 48" xml:space="preserve">
<style>.st0 {
  fill: none;
}

.st1 {
  fill: #fff;
}

</style>
<circle class="st0" cx="24" cy="24" r="24"></circle>
<g>
	<path class="st1" d="M24.7,18L12.5,30.3c-0.4,0.4-1.1,0.4-1.4,0c-0.3-0.4-0.4-1.1,0-1.4l12.2-12.2c0.4-0.4,1.1-0.4,1.4,0
		C25,17.1,25.1,17.6,24.7,18z"></path>
	<path class="st1" d="M35.6,30.4L23.3,18.1c-0.4-0.4-0.4-1.1,0-1.4c0.4-0.3,1.1-0.4,1.4,0l12.2,12.2c0.4,0.4,0.4,1.1,0,1.4
		C36.6,30.6,36,30.8,35.6,30.4z"></path>
</g>
</svg>
