<svg version="1.1" id="Layer_1" xmlns="http://www.w3.org/2000/svg" x="0" y="0" viewBox="0 0 80 80" style="enable-background:new 0 0 80 80" xml:space="preserve"><path style="fill:#fff" d="M0 0h80v80H0z"/><path d="M20.3 38.8c-.8 9 8.5 12 19.9 10.1v-4l14.4 9.7L40 65l.1-3.3c-12.7-1-22.7-12.8-19.8-22.9z" style="fill:#ff0800"/><path d="M29.1 29.2c-1.3-.9-2.2-1.6-2.8-2-3.6 4.2-5.4 9.1-4.7 15 .3 1.9 1.9 3.6 4.7 5-2.9-2.7-3.8-6.3-2.9-11 .2 1.9 1.2 3.9 3 6.1-.2 1.8 0 3.6.5 5.3.5.2.9.4 1.4.4-.5-1.5-.7-3-.7-4.5 1.8 1.5 3.9 2.6 6.1 3.2 0 .6 0 1.3.1 2H35c-.1-.5-.1-1-.1-1.7 1.3.3 2.6.5 4 .6v-1.2c-1.7-.1-3-.4-4-.7 0-2.2.2-4.1.7-5.8 2.8.8 5.7.8 8.8 0 .4 1.7.6 3.7.7 5.9-.6.1-1 .2-1.3.3.8.6 1.6 1.2 2.5 1.8v-1.2c2.4-.8 4.4-1.8 6.1-3.2 0 1.8-.3 3.8-1.1 5.8-.7.4-1.3.7-1.7.9.6.5 1.2.9 1.9 1.4.3-.7.5-1.2.7-1.5 1.1-.8 2-1.6 2.9-2.6-.7 1.5-1.7 3-3.2 4.4.4.3.9.7 1.3 1 2.1-2.3 3.6-4.9 4.5-7.6 1-3.7 1.1-6.3.4-8-.7-1.3-1.6-2.4-2.8-3.1.3 2.4-.4 4.6-1.9 6.5-.1-1.6-.7-3.7-1.8-6.2.3-.6.5-1.2.6-1.8-.3-.2-.7-.3-1.2-.3 0 .3-.1.5-.2.8-.2-.2-.4-.6-.7-1-.7-.1-1.3-.2-1.8-.2.8.8 1.4 1.7 1.9 2.6-.3.6-.9 1.2-1.6 1.9-.9.8-2 1.4-3.3 1.9-.5-2.1-1.1-4.1-2-5.9.4-.1.8-.3 1.2-.6-1 0-2.1.2-3.5.6-.1.2-.1.3 0 .4.4 0 .7-.1 1.1-.2.8 1.8 1.5 3.8 2 6-2.7.8-5.5.8-8.4 0 .5-1.6.9-2.9 1.2-3.8-.3-.2-.7-.4-1-.7-.5 1.2-.9 2.5-1.3 4.1-2.1-.8-3.7-2-4.9-3.9.7-1.2 1.5-2.2 2.3-3-.4-.3-.7-.6-1-.7-.9.9-1.5 1.7-2 2.4-.3-1.4-.3-2.7.1-3.9zm-1.1-.4c-.6 1.8-.4 3.6.5 5.6-.8 1.4-1.4 3.4-1.9 6.1-2.8-3.6-3.1-9.4 1.4-11.7zm-.4 12.9c.2-2.5.8-4.6 1.6-6.1 1.6 1.9 3.5 3.2 5.4 3.8-.5 1.6-.7 3.6-.8 6-2.6-.8-4.6-2-6.2-3.7zm18.7 3.6c-.1-2.1-.3-4-.7-5.9 2.4-1.1 4.2-2.4 5.3-3.8.9 1.9 1.4 3.9 1.5 6.2-1.7 1.6-3.7 2.8-6.1 3.5zm6.7 2.5c.5-2 .7-3.9.6-5.7 1.7-1.8 2.7-3.9 3-6 1.2 4.8 0 8.7-3.6 11.7z" style="fill-rule:evenodd;clip-rule:evenodd;fill:#2f2f2f"/><path d="M59.7 41.2c.8-9-8.5-12-19.9-10.1v4l-14.4-9.7L40 15l-.1 3.3c12.7 1 22.7 12.8 19.8 22.9z" style="fill:#214fc6"/></svg>