<svg version="1.1" id="Layer_1" xmlns="http://www.w3.org/2000/svg" x="0" y="0" viewBox="0 0 300 187.07" style="enable-background:new 0 0 300 187.07" xml:space="preserve"><style>.st0{fill:red}.st1{fill:#282829}.st2{fill:#fefefe}.st3{fill:#fff}.st4{fill-rule:evenodd;clip-rule:evenodd;fill:red}.st5{fill-rule:evenodd;clip-rule:evenodd}</style><g id="Слой_x0020_1"><g id="_2705373272512"><path class="st0" d="M78.42 38.13v17.25h-4.75l-.01-11.64-1.89 11.64h-3.32L66.46 44l-.01 11.38H61.7V38.13h7.01c.2 1.04.41 2.27.65 3.67l.77 4.38 1.24-8.05h7.05zm14.26 17.25h-5.43v-7.76c-.69 0-1.13.09-1.33.28-.2.19-.3.6-.3 1.24v6.24h-5.04v-5.14c0-.87.06-1.54.18-1.99.11-.45.38-.83.8-1.13.42-.3 1.09-.55 2-.74-1.25-.09-2.06-.39-2.43-.88-.37-.49-.55-1.38-.55-2.66 0-1.15.17-2.05.51-2.7.34-.65.84-1.12 1.49-1.4.65-.28 1.4-.46 2.25-.52.85-.06 2.18-.09 3.99-.09h3.85c.01 0 .01 17.25.01 17.25zm-5.43-10.47v-3.82h-.26c-.45 0-.8.08-1.03.25-.23.17-.35.52-.35 1.07v.95c0 .64.1 1.06.29 1.25.2.2.65.3 1.35.3zm20.21.74h-5.43v-2.99c0-.87-.06-1.41-.17-1.63-.11-.21-.37-.32-.76-.32-.44 0-.72.13-.84.39-.12.27-.18.83-.18 1.7v8c0 .84.06 1.38.18 1.64.12.25.39.38.8.38.4 0 .66-.13.79-.39.12-.25.18-.86.18-1.81v-2.17h5.43v.67c0 1.79-.15 3.06-.46 3.8-.3.75-.98 1.4-2.02 1.97-1.05.56-2.33.84-3.86.84-1.59 0-2.9-.24-3.93-.71-1.03-.48-1.71-1.13-2.05-1.98-.33-.84-.5-2.11-.5-3.8V44.2c0-1.24.05-2.17.15-2.79.11-.62.41-1.22.92-1.8.51-.57 1.22-1.03 2.12-1.36.91-.33 1.95-.49 3.12-.49 1.6 0 2.91.25 3.96.77 1.04.51 1.72 1.14 2.05 1.91.33.76.49 1.95.49 3.56l.01 1.65zm14.31 2.59c0 1.73-.05 2.96-.15 3.68-.1.72-.4 1.38-.92 1.98-.52.6-1.22 1.05-2.11 1.37-.88.32-1.91.48-3.09.48-1.12 0-2.11-.15-3-.45-.89-.3-1.6-.75-2.14-1.36-.54-.6-.86-1.26-.97-1.97-.1-.71-.15-1.96-.15-3.73v-2.95c0-1.73.05-2.96.15-3.68.1-.72.4-1.38.92-1.98.52-.6 1.22-1.05 2.11-1.37.88-.32 1.91-.48 3.09-.48 1.12 0 2.11.15 3 .45.89.3 1.6.75 2.14 1.36.54.6.86 1.26.97 1.97.1.71.15 1.95.15 3.73v2.95zm-5.43-5.67c0-.8-.05-1.31-.16-1.54-.11-.22-.32-.33-.65-.33-.28 0-.49.09-.64.27-.15.18-.22.71-.22 1.6v8.05c0 1 .05 1.62.14 1.85.1.24.32.35.67.35.36 0 .59-.13.69-.4.1-.27.15-.91.15-1.93v-7.92h.02z"/><path d="M123.81 38.13h5.43l.03 7.28c1.01-.02 1.52-.49 1.56-1.41l.1-3.37c.04-1.24.33-2.08.87-2.51h5.01c-.48.42-.72 1.29-.71 2.6l.03 2.96c.02 1.79-1.2 2.81-3.66 3.06 2.46.25 3.67 1.28 3.66 3.1l-.03 2.74c-.01 1.31.23 2.24.71 2.79h-5.01c-.58-.43-.87-1.27-.87-2.51V49.5c0-.43-.15-.77-.46-1.03-.31-.26-.71-.39-1.2-.4l-.03 7.3h-5.43V38.13zm26.51 10.11c0 1.73-.05 2.96-.15 3.68-.1.72-.4 1.38-.92 1.98-.52.6-1.22 1.05-2.11 1.37-.88.32-1.91.48-3.09.48-1.12 0-2.11-.15-3-.45-.89-.3-1.6-.75-2.14-1.36-.54-.6-.86-1.26-.97-1.97-.1-.71-.15-1.96-.15-3.73v-2.95c0-1.73.05-2.96.15-3.68.1-.72.4-1.38.92-1.98.52-.6 1.22-1.05 2.11-1.37.88-.32 1.91-.48 3.09-.48 1.12 0 2.11.15 3 .45.89.3 1.6.75 2.14 1.36.54.6.86 1.26.97 1.97.1.71.15 1.95.15 3.73v2.95zm-5.44-5.67c0-.8-.05-1.31-.16-1.54-.11-.22-.32-.33-.65-.33-.28 0-.49.09-.64.27-.15.18-.22.71-.22 1.6v8.05c0 1 .05 1.62.14 1.85.1.24.32.35.67.35.36 0 .59-.13.69-.4.1-.27.15-.91.15-1.93v-7.92h.02zm24.2-4.44v17.25h-4.75l-.01-11.64-1.89 11.64h-3.32L157.12 44l-.01 11.38h-4.75V38.13h7.01c.2 1.04.41 2.27.65 3.67l.77 4.38 1.24-8.05h7.05zm14.81 13.21c0 1.28-.2 2.21-.61 2.77-.4.56-1.02.91-1.83 1.05-.82.14-2.13.21-3.92.21h-6.27V38.13h10.63v2.99h-5.19v2.92h.84c1.67 0 2.94.08 3.8.24.86.16 1.5.52 1.93 1.08.43.56.64 1.43.64 2.62l-.02 3.36zm-5.43-.52v-2.49c0-.73-.09-1.17-.26-1.32-.18-.16-.68-.24-1.5-.27v5.67c.69 0 1.16-.07 1.4-.22.24-.14.36-.6.36-1.37zm19.43 4.56h-4.54v-7.85l-2.82 7.85h-4.72V38.13h4.54v7.78l3.03-7.78h4.51v17.25zm14.64-17.25v17.25h-5.43v-7.24h-1.58v7.24h-5.43V38.13h5.43v6.17h1.58v-6.17h5.43zm11.55 0 3.1 17.25h-5.54l-.29-3.1h-1.96l-.29 3.1h-5.61l2.75-17.25h7.84zm-2.88 11.1c-.26-1.96-.53-4.38-.82-7.26-.54 3.31-.87 5.73-1.02 7.26h1.84zm17.83-11.1v3.44h-3.19v13.8h-5.43v-13.8h-3.22v-3.44h11.84z"/></g><path class="st0" d="M169.14 90.86V62.54h13.65v62.76h-14.28l-8.49-28.55v28.55h-13.65V62.54h13.65l9.12 28.32zm17.85 13.24V92.75c0-2.96.3-5.25.93-6.84.62-1.59 1.9-2.83 3.83-3.72 1.94-.89 4.1-1.34 6.48-1.34 2.86 0 5.3.54 7.31 1.64 2.02 1.1 3.28 2.41 3.78 3.9.5 1.49.75 3.61.75 6.35v10.8c0 4.63-.99 7.71-2.96 9.26-1.98 1.55-4.69 2.33-8.16 2.33-2.33 0-4.28-.26-5.91-.78-1.61-.52-2.92-1.34-3.93-2.47-1-1.14-1.61-2.25-1.82-3.33-.19-1.08-.3-2.56-.3-4.45zm13.17 1.97V90.1c0-1.52-.08-2.53-.25-3.01-.17-.49-.63-.74-1.41-.74-1.06 0-1.59.79-1.59 2.39v18.6c0 .75.09 1.32.26 1.73.19.4.65.59 1.4.59.73 0 1.16-.25 1.34-.74.17-.48.25-1.44.25-2.85zm-14.04 11.13h24.91v6.66h-24.91v-6.66zm52.85-54.66v62.76h-15.63V91.6c0-4.87-.12-7.8-.34-8.78-.24-.98-.87-1.73-1.92-2.23-1.04-.5-3.37-.75-6.98-.75h-1.55v-7.29c7.56-1.61 13.3-4.96 17.22-10.01h9.2z"/><path class="st1" d="M83.56 77.07s-1.85.9-2.17 1.36c-.32.45-1.08 1.22-2.03 1.31-.95.09-1.94-.68-3.66-1.54-1.72-.86-3.66-2.58-6.51-2.26-2.85.32-4.7 1.31-6.06 2.17-1.36.86-2.17 2.4-1.27 3.66s2.76 3.25 3.53 3.71c.77.45 1.04 1.72 3.34 2.89 2.3 1.18 4.79 1.27 6.46 1.08 1.67-.18 3.16-.18 3.16-.18s0 1.13.41 2.4 1.67 3.3 2.03 4.29c.36.99.14 2.94.05 4.52-.09 1.58.05 6.33.41 7.41s.77 3.75.5 4.52c-.27.77-.54 4.11-.23 5.51.32 1.4.36 1.85.72 1.72.36-.14.23-2.67.63-3.71.41-1.04.68-1.18.68-2.21 0-1.04.14-1.67.72-1.63.59.05.86.41 1.54.32.68-.09 2.12-2.71 2.67-2.98.54-.27 1.04-5.2.81-5.97 0 0 .9-2.21.54-3.75s-.18-4.07-1.27-6.73c-1.08-2.67-1.9-4.97-2.08-6.78-.18-1.81-.18-3.53-1.31-4.61-1.11-1.08-1.61-4.52-1.61-4.52z"/><path class="st2" d="M63.52 80.86c.82-.73 3.62-1.91 5.17-.53-.79.36-.99.71-.99.71s2.36.15 3.02 1.51c-.65.01-.89.19-.89.19 3.17 1.15 3.21 2.25 7.88 2.15-.3.61-1.1 3.2-5.09 2.98s-7.71-3.18-9.1-7.01z"/><path class="st1" d="M102.08 77.07s1.85.9 2.17 1.36c.32.45 1.08 1.22 2.03 1.31.95.09 1.94-.68 3.66-1.54 1.72-.86 3.66-2.58 6.51-2.26 2.85.32 4.7 1.31 6.06 2.17 1.36.86 2.17 2.4 1.27 3.66-.9 1.27-2.76 3.25-3.53 3.71-.77.45-1.04 1.72-3.34 2.89-2.3 1.18-4.79 1.27-6.46 1.08-1.67-.18-3.16-.18-3.16-.18s0 1.13-.41 2.4-1.67 3.3-2.03 4.29c-.36.99-.14 2.94-.05 4.52.09 1.58-.05 6.33-.41 7.41s-.77 3.75-.5 4.52c.27.77.54 4.11.23 5.51-.32 1.4-.36 1.85-.72 1.72-.36-.14-.23-2.67-.63-3.71-.41-1.04-.68-1.18-.68-2.21 0-1.04-.14-1.67-.72-1.63-.59.05-.86.41-1.54.32-.68-.09-2.12-2.71-2.67-2.98-.54-.27-1.04-5.2-.81-5.97 0 0-.9-2.21-.54-3.75s.18-4.07 1.27-6.73c1.08-2.67 1.9-4.97 2.08-6.78.18-1.81.18-3.53 1.31-4.61 1.11-1.08 1.61-4.52 1.61-4.52z"/><path class="st2" d="M122.12 80.86c-.82-.73-3.62-1.91-5.17-.53.79.36.99.71.99.71s-2.36.15-3.02 1.51c.65.01.89.19.89.19-3.17 1.15-3.22 2.25-7.88 2.15.3.61 1.1 3.2 5.09 2.98 3.99-.22 7.72-3.18 9.1-7.01z"/><path class="st1" d="M100.67 115.97c-1.1-.66-1.22.08-2.32 0-1.1-.08-1.35-2.29-2.74-2.44-1.39-.15-2.78.74-2.78.74s-1.39-.89-2.78-.74c-1.39.15-1.64 2.36-2.74 2.44s-1.22-.66-2.32 0c-1.1.66-1.69 2.42-1.01 3.86.67 1.45 3.08 2.61 3.29 3.46.21.85.76 2.13 2.15 2.21 1.39.08 3.42-.35 3.42-.35s2.02.43 3.42.35c1.39-.08 1.94-1.36 2.15-2.21.21-.85 2.62-2.01 3.29-3.46s.06-3.2-1.03-3.86z"/><path class="st2" d="M86.83 118.34c.62.15.84 1.16 1.42 1.5.58.34 1.62 2.14.78 2.43-.84.28-2.31-.46-2.47-1.21-.17-.75.45-.96 0-1.39-.45-.44-.87-.85-1.04-1.47-.17-.62-.39-1.08 0-1.08.39-.02.69 1.06 1.31 1.22zM98.81 118.34c-.62.15-.84 1.16-1.42 1.5-.58.34-1.62 2.14-.78 2.43.84.28 2.31-.46 2.47-1.21.17-.75-.45-.96 0-1.39.45-.44.87-.85 1.04-1.47.17-.62.39-1.08 0-1.08-.38-.02-.69 1.06-1.31 1.22z"/><path class="st1" d="M99.46 73.9s1.03-.17 1.3-.68c-2.77.19-3.55-.53-4.73-1.06-1.19-.53-3.03-.25-3.03-.25h-.37s-1.84-.29-3.02.24-1.96 1.26-4.73 1.06c.28.52 1.3.68 1.3.68s-.84 1.61-2.77 1.9c2.27.51 3.55-.3 3.55-.3s.54.65.37 1.34c.69-.26.98-1.46.98-1.46s-.15 1.98-.63 2.24c.7-.06 1.2-.93 1.2-.93s-.37 1.88.84 2.66c.02-.47.12-.87.12-.87.67 1.53 2.08 1.4 2.96 2.37l.02.02.02-.02c.88-.97 2.29-.84 2.96-2.37 0 0 .11.4.12.87 1.21-.78.84-2.66.84-2.66s.49.87 1.2.93c-.47-.26-.63-2.24-.63-2.24s.29 1.2.98 1.46c-.17-.69.37-1.34.37-1.34s1.29.8 3.55.3c-1.93-.28-2.77-1.89-2.77-1.89z"/><path class="st3" d="M102.56 94.14s2.66.56 3.39-1.01c.6-1.29-.47-2.48-.47-2.48s.24-.41 1.22-.55c.02-.28-1.22-.62-2.55.5-1.33 1.12-1.59 3.54-1.59 3.54z"/><path class="st2" d="M104.63 91.63a.37.37 0 1 0 .37-.37c-.2-.01-.37.16-.37.37zM105.84 92.27c.26 1.09-1.02 1.6-1.71 1.31.52-.03 1.54-.12 1.71-1.31z"/><path class="st3" d="M83.09 94.14s-2.66.56-3.39-1.01c-.6-1.29.47-2.48.47-2.48s-.24-.41-1.22-.55c-.02-.28 1.22-.62 2.55.5 1.32 1.12 1.59 3.54 1.59 3.54z"/><path class="st2" d="M81.02 91.63a.37.37 0 1 1-.37-.37c.2-.01.37.16.37.37zM79.8 92.27c-.26 1.09 1.02 1.6 1.71 1.31-.52-.03-1.53-.12-1.71-1.31z"/><path class="st1" d="M85.02 74.24s-8.04-1.11-11.81-3.71-3.91-5.28-3.52-6.66c.39-1.37-.46-2.48-1.54-.53-1.08 1.94-1.25 7.31 2.05 10.36s9.36 5.35 9.36 5.35 1.33-.74 1.88-1.39c.55-.65.97-.7 1.35-1.63.37-.94 2.23-1.79 2.23-1.79zM100.63 74.24s8.04-1.11 11.81-3.71 3.91-5.28 3.52-6.66c-.39-1.37.46-2.48 1.54-.53 1.08 1.94 1.25 7.31-2.05 10.36s-9.36 5.35-9.36 5.35-1.33-.74-1.88-1.39c-.55-.65-.97-.7-1.35-1.63-.38-.94-2.23-1.79-2.23-1.79z"/><path d="m92.28 146.96 1.76-8.4h2.68c.49 0 .85.02 1.09.06.39.06.71.18.98.34.27.16.47.39.62.66.15.28.22.59.22.93 0 .46-.13.87-.38 1.22s-.65.62-1.17.8c.46.15.8.37 1.03.67.23.3.34.65.34 1.05 0 .46-.13.91-.41 1.33-.27.42-.63.75-1.08.98-.45.23-.95.35-1.5.35l-4.18.01zm2.12-4.81h1.79c.85 0 1.47-.13 1.83-.39.37-.26.55-.64.55-1.14 0-.24-.06-.44-.17-.62-.12-.17-.27-.3-.47-.38-.2-.08-.56-.12-1.1-.12h-1.88l-.55 2.65zm-.8 3.86h1.98c.53 0 .88-.02 1.06-.05.37-.06.67-.17.9-.31.23-.15.41-.34.54-.58.13-.24.2-.49.2-.76 0-.39-.13-.69-.38-.9-.25-.21-.74-.31-1.46-.31h-2.23l-.61 2.91zm13.64-5.14h1.03l-1.28 6.09h-1.03l1.28-6.09zm-6 0h1.04l-.5 2.36h1.11c.71 0 1.21.05 1.52.15.3.1.54.29.71.57.17.27.26.58.26.91 0 .4-.12.79-.35 1.16-.23.37-.52.62-.87.75-.34.13-.88.19-1.6.19h-2.59l1.27-6.09zm-.07 5.27h1.32c.52 0 .88-.04 1.09-.1.21-.07.39-.19.53-.38.14-.18.22-.4.22-.66a.88.88 0 0 0-.19-.58.834.834 0 0 0-.44-.3c-.17-.04-.47-.05-.91-.05h-1.18l-.44 2.07zm13.06-7.73h1.01c-.12.58-.33.94-.65 1.08-.32.13-.7.2-1.14.2l-1.06-.02c-.38 0-.67.06-.87.17-.21.12-.37.27-.5.47-.13.19-.34.63-.63 1.31.41-.38.79-.6 1.15-.66.35-.06.62-.1.79-.1.56 0 1.1.21 1.59.63.49.42.74 1.05.74 1.89 0 .99-.3 1.85-.91 2.59-.6.74-1.4 1.11-2.38 1.11-.77 0-1.38-.23-1.81-.71-.43-.47-.65-1.09-.65-1.84 0-.83.21-1.85.62-3.05.41-1.2.87-1.97 1.36-2.32.49-.34 1.12-.51 1.88-.51l.92.02c.31.01.49-.08.54-.26zm-.61 4.94c0-.49-.12-.9-.37-1.2s-.6-.46-1.04-.46c-.68 0-1.23.3-1.65.89-.42.59-.63 1.27-.63 2.04 0 .43.13.81.39 1.13.26.32.62.49 1.06.49.67 0 1.21-.32 1.62-.96.42-.63.62-1.28.62-1.93zm1.79 1.29c0-1.19.35-2.17 1.05-2.94.58-.64 1.33-.96 2.27-.96.73 0 1.32.23 1.77.69.45.46.67 1.08.67 1.85 0 .7-.14 1.35-.42 1.95-.28.6-.68 1.06-1.2 1.38-.52.32-1.07.48-1.65.48-.47 0-.9-.1-1.29-.3-.39-.2-.68-.49-.89-.86-.21-.38-.31-.8-.31-1.29zm1.03-.1c0 .57.14 1.01.41 1.3.28.3.63.44 1.05.44.22 0 .44-.04.66-.14.22-.09.42-.22.61-.41.19-.18.35-.39.48-.63.13-.23.24-.49.32-.76.12-.38.18-.74.18-1.09 0-.55-.14-.98-.42-1.28-.28-.3-.63-.46-1.05-.46-.33 0-.62.08-.89.23-.27.15-.51.38-.73.68-.22.3-.38.64-.48 1.04-.08.42-.14.77-.14 1.08zm4.83 4.75 1.76-8.42h.96l-.18.85c.35-.37.67-.63.95-.77.28-.14.58-.21.89-.21.58 0 1.06.21 1.45.63.38.42.57 1.02.57 1.81 0 .63-.11 1.21-.32 1.73-.21.52-.47.94-.77 1.26-.31.32-.62.55-.93.7-.31.15-.64.22-.96.22-.73 0-1.3-.37-1.7-1.11l-.69 3.32-1.03-.01zm2.04-4.82c0 .45.03.77.1.94.1.25.25.45.47.6.22.15.47.23.76.23.6 0 1.08-.33 1.45-1.01.37-.67.55-1.35.55-2.05 0-.51-.12-.91-.37-1.19-.25-.28-.55-.42-.92-.42-.26 0-.51.07-.74.21-.23.14-.44.35-.63.63s-.35.62-.48 1.02c-.12.4-.19.75-.19 1.04zm10.09-5.91h5.47l-.21.96h-4.35l-.55 2.62h1.71c.84 0 1.44.06 1.79.19.35.13.64.34.88.66.24.31.35.71.35 1.17 0 .56-.16 1.07-.49 1.54-.33.47-.73.79-1.2.99-.47.19-1.24.29-2.3.29h-2.87c.01-.02 1.77-8.42 1.77-8.42zm-.44 7.45h.99c.99 0 1.7-.06 2.13-.17.42-.11.75-.32.97-.64.22-.31.34-.64.34-1 0-.26-.07-.49-.22-.67-.15-.18-.35-.3-.61-.36s-.66-.09-1.22-.09h-1.77l-.61 2.93zm6.4-1.37c0-1.19.35-2.17 1.05-2.94.58-.64 1.33-.96 2.27-.96.73 0 1.32.23 1.77.69.45.46.67 1.08.67 1.85 0 .7-.14 1.35-.42 1.95-.28.6-.68 1.06-1.2 1.38-.52.32-1.07.48-1.65.48-.47 0-.9-.1-1.29-.3-.39-.2-.68-.49-.89-.86-.21-.38-.31-.8-.31-1.29zm1.03-.1c0 .57.14 1.01.41 1.3.28.3.63.44 1.05.44.22 0 .44-.04.66-.14.22-.09.42-.22.61-.41.19-.18.35-.39.48-.63.13-.23.24-.49.32-.76.12-.38.18-.74.18-1.09 0-.55-.14-.98-.42-1.28-.28-.3-.63-.46-1.05-.46-.33 0-.62.08-.89.23-.27.15-.51.38-.73.68-.22.3-.38.64-.48 1.04-.09.42-.14.77-.14 1.08zm6.71-3.67h4.6l-1.25 6.09h-1.03l1.09-5.22h-2.57l-.75 3.63c-.13.62-.31 1.06-.53 1.31-.22.25-.54.37-.93.37-.23 0-.53-.03-.91-.08l.19-.86c.16.01.31.02.44.02.26 0 .44-.07.52-.2.08-.13.2-.53.34-1.21l.79-3.85zm6.21 0h1.04l-.5 2.36h1.11c.71 0 1.21.05 1.52.15.3.1.54.29.71.57.17.27.26.58.26.91 0 .4-.12.79-.35 1.16-.23.37-.52.62-.87.75-.34.13-.88.19-1.6.19h-2.59l1.27-6.09zm-.07 5.26h1.32c.52 0 .88-.04 1.09-.1.21-.07.39-.19.53-.38.14-.18.22-.4.22-.66a.88.88 0 0 0-.19-.58.834.834 0 0 0-.44-.3c-.17-.04-.47-.05-.91-.05h-1.18l-.44 2.07zm6.24-5.26h1.03l-.82 3.88c-.07.36-.11.62-.11.79 0 .22.06.39.17.5.11.11.29.17.51.17.35 0 .67-.1.97-.3.3-.2.53-.44.7-.71.17-.27.32-.68.43-1.23l.65-3.09h1.03l-.84 3.97c-.06.3-.09.54-.09.71 0 .22.05.38.16.49.11.11.27.17.48.17.44 0 .87-.19 1.3-.58.43-.39.72-.99.87-1.8.01-.04.02-.08.02-.13l.62-2.83h1.03l-1.28 6.09h-1.03l.22-1.03c-.57.77-1.23 1.16-1.98 1.16-.42 0-.76-.12-1.03-.36s-.41-.5-.43-.8c-.32.39-.65.67-1 .87-.34.19-.7.29-1.07.29-.42 0-.76-.12-1.05-.35-.28-.24-.42-.55-.42-.93 0-.27.06-.71.19-1.33l.77-3.62zm12.65 4.99c-.73.82-1.48 1.23-2.24 1.23-.47 0-.85-.13-1.14-.4-.29-.27-.43-.6-.43-.98 0-.26.07-.69.21-1.32l.8-3.52h1.04l-.89 3.94c-.07.33-.11.58-.11.77 0 .21.07.37.21.49.14.12.35.18.63.18.3 0 .58-.07.86-.21.28-.14.52-.33.73-.57.2-.24.37-.52.5-.85.08-.21.18-.57.3-1.1l.58-2.65h1.03l-1.35 6.09h-.96l.23-1.1zm3.61-4.99h1.03l-.54 2.55h2.82l.53-2.55h1.02l-1.26 6.09h-1.03l.57-2.72h-2.81l-.57 2.72h-1.03l1.27-6.09zm9.41 3.87 1.04.11c-.26.76-.63 1.32-1.11 1.69-.48.37-1.02.55-1.64.55-.66 0-1.2-.21-1.61-.64-.41-.43-.62-1.02-.62-1.79 0-.66.13-1.31.4-1.96.26-.64.64-1.13 1.13-1.46.49-.33 1.05-.5 1.68-.5.65 0 1.17.18 1.55.55.38.37.57.86.57 1.46l-1.02.07c0-.39-.12-.69-.34-.91-.22-.22-.51-.33-.87-.33-.42 0-.78.13-1.09.4-.3.26-.55.66-.72 1.2-.17.54-.26 1.05-.26 1.55 0 .52.12.91.34 1.17.23.26.51.39.85.39.34 0 .66-.13.97-.38.33-.26.57-.65.75-1.17zm1.67 2.22 1.28-6.09h1.03l-.21 1.01c.39-.43.73-.73 1.03-.89.3-.16.63-.25.99-.25.38 0 .7.1.95.3.25.2.42.48.5.84.31-.38.64-.67.98-.86.34-.19.7-.28 1.08-.28.51 0 .89.12 1.14.36.25.24.38.58.38 1.01 0 .19-.04.5-.13.93l-.83 3.92h-1.03l.84-4.02c.07-.33.11-.56.11-.7 0-.2-.06-.36-.19-.47-.13-.12-.3-.17-.54-.17-.31 0-.63.09-.95.28-.32.19-.57.43-.75.73-.18.3-.33.77-.47 1.4l-.62 2.95h-1.03l.86-4.1c.06-.28.09-.48.09-.6 0-.2-.06-.36-.19-.48a.689.689 0 0 0-.49-.18c-.3 0-.6.09-.93.28-.32.19-.59.45-.79.78-.2.33-.37.81-.5 1.43l-.6 2.88-1.01-.01zm13.83-3.19c.39.14.68.32.87.55.19.23.29.52.29.85 0 .46-.21.9-.62 1.3-.41.4-1.02.61-1.82.61-.6 0-1.08-.1-1.43-.3-.35-.2-.63-.49-.84-.87a2.53 2.53 0 0 1-.31-1.26c0-1.08.31-2 .93-2.77.62-.77 1.46-1.15 2.51-1.15.63 0 1.12.15 1.45.44.33.29.5.65.5 1.07 0 .39-.13.71-.38.96-.26.26-.64.45-1.15.57zm-2.61-.43c.28.02.52.04.72.04.79 0 1.38-.09 1.77-.26.39-.17.59-.43.59-.77 0-.22-.08-.41-.25-.56-.17-.15-.39-.22-.67-.22-.48 0-.91.16-1.31.48-.41.3-.69.74-.85 1.29zm-.17.81a2.7 2.7 0 0 0-.04.49c0 .48.14.88.41 1.19.28.31.67.46 1.19.46.4 0 .72-.11.96-.32s.36-.47.36-.78c0-.42-.17-.7-.5-.84-.33-.14-.94-.21-1.82-.21-.09.01-.27.01-.56.01zm8.69 2.05c-.36.31-.71.53-1.04.67-.33.14-.69.21-1.07.21-.56 0-1.01-.16-1.36-.49-.34-.33-.52-.75-.52-1.27 0-.34.08-.64.23-.9.15-.26.36-.47.61-.63.26-.16.57-.27.94-.34.23-.05.68-.08 1.33-.11s1.12-.1 1.41-.21c.08-.28.12-.52.12-.71 0-.24-.09-.43-.26-.57-.24-.19-.59-.29-1.06-.29-.44 0-.79.1-1.07.29-.28.19-.48.47-.61.83l-1.04-.09c.21-.6.55-1.06 1.01-1.38.46-.32 1.05-.48 1.75-.48.75 0 1.35.18 1.79.54.33.27.5.62.5 1.04 0 .32-.05.7-.14 1.13l-.33 1.51c-.11.48-.16.87-.16 1.17 0 .19.04.47.13.83h-1.05c-.04-.19-.08-.44-.11-.75zm.39-2.33c-.15.06-.3.1-.47.13-.17.03-.45.06-.84.1-.6.05-1.03.12-1.28.2-.25.08-.44.21-.56.39-.13.18-.19.38-.19.59 0 .29.1.53.3.72.2.19.49.28.86.28.34 0 .67-.09.99-.27.32-.18.57-.43.75-.76.19-.32.34-.78.44-1.38z"/><path class="st4" d="M223 144.08h16.41v-.45H223zM60.59 144.08h15.87v-.45H60.59z"/></g><g id="Слой_x0020_1_00000064325854722823964680000006613033994819722919_"><path class="st4" d="M205.82-38.83h88.88v1.01h-88.88z"/><path class="st5" d="M205.82-33.27h44.44v1.01h-44.44zM205.82-27.72h22.22v1.01h-22.22zM205.82-44.39h44.44v1.01h-44.44zM205.82-49.94h22.22v1.01h-22.22z"/></g><g id="Слой_x0020_1_00000044877629646857692070000007607169324792087698_"><path class="st4" d="M2.83-33.78h88.88v1.01H2.83z"/><path class="st5" d="M47.27-28.23h44.44v1.01H47.27zM69.49-22.67h22.22v1.01H69.49zM47.27-39.34h44.44v1.01H47.27zM69.49-44.89h22.22v1.01H69.49z"/></g></svg>