<svg version="1.1" id="Layer_1" xmlns="http://www.w3.org/2000/svg" xmlns:xlink="http://www.w3.org/1999/xlink" x="0" y="0" viewBox="0 0 307.3 307.3" style="enable-background:new 0 0 307.3 307.3" xml:space="preserve"><style>.st0{fill:#2f2f2f}.st1{clip-path:url(#SVGID_00000080169491016641090460000017168786636811668646_)}</style><path class="st0" d="M224.5 222.6c-5.5 5.5-14.6 10.8-20 11.5-5.9.8-11.8.9-17.5.3-12.9-1.4-25.7-6.4-39-15.2-9.9-6.5-20.1-15.2-32.1-27.2-2.3-2.3-4.7-4.8-7.1-7.4-16.5-17.8-43.1-52.1-36-81 1.4-5.8 4.2-11.3 8.3-16.3 1.2-1.5 2.5-2.9 3.9-4.3l10.4-10.5 19.9 19.9c2 2 3.1 4.7 3.1 7.6 0 2.9-1.1 5.6-3.1 7.6l-4.2 4.2c-8.8 8.9-10.3 22.8-3.4 33.1 15.5 23.3 34.6 42 58.3 57.1 8.3 5.3 20.3 3.9 27.3-3.1l6.7-6.7c.8-.8 1.6-1.4 2.6-1.9 4.1-2.2 9.3-1.4 12.6 1.9L235 212l-10.5 10.6zm22.4-19-21.5-21.5c-7.7-7.7-19.9-9.6-29.7-4.5-2.2 1.2-4.3 2.7-6.1 4.5l-6.7 6.7c-2.2 2.2-6.7 2.7-9.3 1.1-22-14-39.7-31.3-54-52.9-3.1-4.6-2.4-10.8 1.6-14.8l4.2-4.2c4.8-4.8 7.4-11.1 7.4-17.8 0-6.8-2.6-13.1-7.4-17.8l-21.5-21.5c-1.1-1.1-3.2-2.6-6.5-3-4.3-.5-8.8 1.1-12 4.2L74.7 72.8c-1.8 1.8-3.5 3.7-4.9 5.5-5.3 6.6-9.1 14-11 21.9-8.3 33.8 16.8 69.9 39.4 94.3 2.5 2.8 5 5.3 7.5 7.8 12.8 12.8 23.7 22 34.4 29.1 15.3 10.2 30.2 15.9 45.5 17.6 3 .3 6 .5 9 .5 4 0 8.1-.3 12.1-.9 9.6-1.4 21.5-8.9 28.2-15.6l10.8-10.8c3.2-3.2 4.8-7.7 4.2-12-.4-2.7-1.4-4.9-3-6.6"/><defs><path id="SVGID_1_" d="M0 0h307.3v307.3H0z"/></defs><clipPath id="SVGID_00000159470607153135979390000000830950192407095992_"><use xlink:href="#SVGID_1_" style="overflow:visible"/></clipPath><path class="st0" d="M153.5 14.7C77 14.7 14.7 77 14.7 153.5c0 76.5 62.3 138.8 138.8 138.8 76.5 0 138.8-62.3 138.8-138.8 0-76.5-62.2-138.8-138.8-138.8zm0 292.4C68.8 307.1 0 238.2 0 153.5 0 68.8 68.8 0 153.5 0s153.6 68.9 153.6 153.6c0 84.6-68.9 153.5-153.6 153.5" style="clip-path:url(#SVGID_00000159470607153135979390000000830950192407095992_)"/></svg>