<svg version="1.1" id="Layer_1" xmlns="http://www.w3.org/2000/svg" x="0" y="0" viewBox="0 0 48 48" style="enable-background:new 0 0 48 48" xml:space="preserve"><circle cx="24" cy="23.7" r="23" style="fill:none"/><path d="M34.1 14.1c-2.5-2.5-6.2-4.1-9.9-4.1-7.7 0-14.1 6.3-14.1 14.1 0 2.5.6 5 1.8 6.9l-2.1 7.4 7.4-2.1c2.1 1 4.4 1.6 6.6 1.6 7.7 0 14-6.3 14-14 .3-3.7-1.2-7.3-3.7-9.8m-10 21.5c-2.1 0-4.1-.6-5.9-1.6l-.3-.3-4.4 1.2 1.2-4.3-.3-.3c-1.2-1.8-1.8-4-1.8-6.2 0-6.3 5.2-11.6 11.6-11.6 3.1 0 6 1.2 8.3 3.4s3.4 5.2 3.4 8.3c-.2 6.1-5.3 11.4-11.8 11.4m6.5-8.7c-.3-.1-2.1-1-2.4-1-.3-.1-.6-.1-.7.1-.1.3-.9 1-1 1.5-.1.1-.3.3-.7.1-.3-.1-1.5-.6-2.8-1.6-1-.9-1.6-2.1-2.1-2.4-.1-.3 0-.6.1-.7l.6-.6c.1-.1.1-.3.3-.6.1-.1.1-.3 0-.6-.1-.1-.7-1.8-1-2.5s-.6-.6-.7-.6h-.7c-.4 0-.7.1-.9.3-.3.3-1.2 1.2-1.2 2.9 0 1.6 1.3 3.4 1.5 3.7.1.1 2.5 3.8 6 5.3.7.3 1.5.6 2.1.7.7.3 1.6.1 2.2.1.7-.1 2.1-.7 2.4-1.6.3-.7.3-1.5.1-1.6-.5-.8-.8-.8-1.1-.9" style="fill-rule:evenodd;clip-rule:evenodd;fill:#fff"/></svg>