<?xml version="1.0" encoding="utf-8"?>
<!-- Generator: Adobe Illustrator 25.4.1, SVG Export Plug-In . SVG Version: 6.00 Build 0)  -->
<svg version="1.1" id="Layer_1" xmlns="http://www.w3.org/2000/svg" xmlns:xlink="http://www.w3.org/1999/xlink" x="0px" y="0px"
	 viewBox="0 0 80 80" style="enable-background:new 0 0 80 80;" xml:space="preserve">
<style type="text/css">
	.st0{fill:#FFFFFF;}
	.st1{fill:#FF0800;}
	.st2{fill-rule:evenodd;clip-rule:evenodd;fill:#2F2F2F;}
	.st3{display:none;fill:none;stroke:#231F27;stroke-width:0.216;stroke-miterlimit:10;}
	.st4{display:none;fill:#2F2F2F;}
	.st5{fill:#214FC6;}
</style>
<rect class="st0" width="80" height="80"/>
<path class="st1" d="M20.3,38.8c-0.8,9,8.5,12,19.9,10.1l0-4l14.4,9.7L40,65l0.1-3.3C27.4,60.7,17.4,48.9,20.3,38.8z"/>
<path class="st2" d="M29.1,29.2c-1.3-0.9-2.2-1.6-2.8-2c-3.6,4.2-5.4,9.1-4.7,15c0.3,1.9,1.9,3.6,4.7,5c-2.9-2.7-3.8-6.3-2.9-11
	c0.2,1.9,1.2,3.9,3,6.1c-0.2,1.8,0,3.6,0.5,5.3c0.5,0.2,0.9,0.4,1.4,0.4c-0.5-1.5-0.7-3-0.7-4.5c1.8,1.5,3.9,2.6,6.1,3.2
	c0,0.6,0,1.3,0.1,2c0.4,0,0.8,0,1.2,0c-0.1-0.5-0.1-1-0.1-1.7c1.3,0.3,2.6,0.5,4,0.6v-1.2c-1.7-0.1-3-0.4-4-0.7
	c0-2.2,0.2-4.1,0.7-5.8c2.8,0.8,5.7,0.8,8.8,0c0.4,1.7,0.6,3.7,0.7,5.9c-0.6,0.1-1,0.2-1.3,0.3c0.8,0.6,1.6,1.2,2.5,1.8v-1.2
	c2.4-0.8,4.4-1.8,6.1-3.2c0,1.8-0.3,3.8-1.1,5.8c-0.7,0.4-1.3,0.7-1.7,0.9c0.6,0.5,1.2,0.9,1.9,1.4c0.3-0.7,0.5-1.2,0.7-1.5
	c1.1-0.8,2-1.6,2.9-2.6c-0.7,1.5-1.7,3-3.2,4.4c0.4,0.3,0.9,0.7,1.3,1c2.1-2.3,3.6-4.9,4.5-7.6c1-3.7,1.1-6.3,0.4-8
	c-0.7-1.3-1.6-2.4-2.8-3.1c0.3,2.4-0.4,4.6-1.9,6.5c-0.1-1.6-0.7-3.7-1.8-6.2c0.3-0.6,0.5-1.2,0.6-1.8c-0.3-0.2-0.7-0.3-1.2-0.3
	c0,0.3-0.1,0.5-0.2,0.8c-0.2-0.2-0.4-0.6-0.7-1c-0.7-0.1-1.3-0.2-1.8-0.2c0.8,0.8,1.4,1.7,1.9,2.6c-0.3,0.6-0.9,1.2-1.6,1.9
	c-0.9,0.8-2,1.4-3.3,1.9c-0.5-2.1-1.1-4.1-2-5.9c0.4-0.1,0.8-0.3,1.2-0.6c-1,0-2.1,0.2-3.5,0.6c-0.1,0.2-0.1,0.3,0,0.4
	c0.4,0,0.7-0.1,1.1-0.2c0.8,1.8,1.5,3.8,2,6c-2.7,0.8-5.5,0.8-8.4,0c0.5-1.6,0.9-2.9,1.2-3.8c-0.3-0.2-0.7-0.4-1-0.7
	c-0.5,1.2-0.9,2.5-1.3,4.1c-2.1-0.8-3.7-2-4.9-3.9c0.7-1.2,1.5-2.2,2.3-3c-0.4-0.3-0.7-0.6-1-0.7c-0.9,0.9-1.5,1.7-2,2.4
	C28.7,31.7,28.7,30.4,29.1,29.2L29.1,29.2z M28,28.8c-0.6,1.8-0.4,3.6,0.5,5.6c-0.8,1.4-1.4,3.4-1.9,6.1
	C23.8,36.9,23.5,31.1,28,28.8z M27.6,41.7c0.2-2.5,0.8-4.6,1.6-6.1c1.6,1.9,3.5,3.2,5.4,3.8c-0.5,1.6-0.7,3.6-0.8,6
	C31.2,44.6,29.2,43.4,27.6,41.7z M46.3,45.3c-0.1-2.1-0.3-4-0.7-5.9c2.4-1.1,4.2-2.4,5.3-3.8c0.9,1.9,1.4,3.9,1.5,6.2
	C50.7,43.4,48.7,44.6,46.3,45.3L46.3,45.3z M53,47.8c0.5-2,0.7-3.9,0.6-5.7c1.7-1.8,2.7-3.9,3-6C57.8,40.9,56.6,44.8,53,47.8z"/>
<path class="st3" d="M-3168.3-881.3H2501V961.3h-5669.3V-881.3z"/>
<path class="st4" d="M-1609.5-150.4c30.1,0,55.4,11.7,75.8,35.1c20.4,23.4,30.7,53.2,30.7,89.4s-10.2,66.1-30.7,89.4
	c-20.4,23.4-45.7,35.1-75.8,35.1h-39.6v106.7h-76.3v-355.6H-1609.5z M-1609.5,12.2c8.5,0,15.7-3.6,21.5-10.7
	c5.8-7.1,8.7-16.3,8.7-27.4s-2.9-20.2-8.7-27.2s-13-10.4-21.5-10.4h-39.6v75.7L-1609.5,12.2L-1609.5,12.2z M-1317.6,205.3l-52-114.8
	h-27.3v114.8h-76.3v-355.6h119.3c30.4,0,55.9,11.6,76.5,34.8s30.9,52.6,30.9,88.2c0,21.3-4.6,40.9-13.6,58.7s-21.4,31.9-37.1,42.4
	l61.4,131.6L-1317.6,205.3L-1317.6,205.3z M-1396.9-66.5v79.8h42.2c9.4,0.3,17-3.2,23-10.7s8.9-17.1,8.9-29s-3-21.5-8.9-29
	s-13.6-11.2-23-11.2H-1396.9z M-957.3,159.3c-30.2,35.7-67.3,53.6-111,53.6c-43.8,0-80.8-17.9-111-53.6s-45.4-79.7-45.4-131.8
	s15.1-96.1,45.4-131.8s67.3-53.6,111-53.6c43.8,0,80.8,17.9,111,53.6S-912-24.7-912,27.5S-927.1,123.6-957.3,159.3L-957.3,159.3z
	 M-1125.9,96.8c15.3,18.1,34.5,27.2,57.5,27.2s42.2-9.1,57.5-27.2c15.3-18.1,23-41.2,23-69.3s-7.7-51.2-23-69.3
	c-15.3-18.1-34.5-27.2-57.5-27.2s-42.2,9.1-57.5,27.2c-15.3,18.1-23,41.2-23,69.3S-1141.2,78.7-1125.9,96.8z M-779.9-150.4h76.3
	v355.6h-76.3V-150.4L-779.9-150.4z M-352.5-150.4v355.6h-75.9V13.7l-72.4,142.8h-7.7l-72-142.3v191h-76.3v-355.6h76.3l75.8,151.9
	l76.3-151.9H-352.5L-352.5-150.4z M-189.3-150.4c30.1,0,55.4,11.7,75.8,35.1s30.7,53.2,30.7,89.4S-93,40.2-113.4,63.5
	s-45.7,35.1-75.9,35.1h-39.6v106.7h-76.3v-355.6H-189.3L-189.3-150.4z M-189.3,12.2c8.5,0,15.7-3.6,21.5-10.7s8.7-16.3,8.7-27.4
	s-2.9-20.2-8.7-27.2c-5.8-6.9-13-10.4-21.5-10.4h-39.6v75.7L-189.3,12.2L-189.3,12.2z M202.5,159.3c-30.2,35.7-67.2,53.6-111,53.6
	s-80.8-17.9-111-53.6S-64.8,79.6-64.8,27.5s15.1-96.1,45.4-131.8S47.8-158,91.5-158s80.8,17.9,111,53.6s45.4,79.7,45.4,131.8
	S232.8,123.6,202.5,159.3z M34,96.8C49.3,114.9,68.5,124,91.5,124c23,0,42.2-9.1,57.5-27.2s23-41.2,23-69.3s-7.7-51.2-23-69.3
	s-34.5-27.2-57.5-27.2S49.4-60,34-41.9S11-0.6,11,27.5S18.7,78.7,34,96.8z M438.8,205.3l-52-114.8h-27.3v114.8h-76.3v-355.6h119.3
	c30.4,0,55.9,11.6,76.5,34.8S510-63,510-27.4c0,21.3-4.5,40.9-13.6,58.7s-21.5,31.9-37.1,42.4l61.4,131.6L438.8,205.3z M359.6-66.5
	v79.8h42.2c9.4,0.3,17-3.2,23-10.7s9-17.1,9-29s-3-21.5-9-29s-13.6-11.2-23-11.2H359.6z M745.6-150.4v87.9h-73.7v267.8h-76.3V-62.5
	h-73.7v-87.9H745.6L745.6-150.4z M1166.2,1.5v36.1c0,52.2-13.7,94.4-41.1,126.8c-27.4,32.4-63,48.5-106.7,48.5
	c-46.6,0-84.9-17.8-114.8-53.3s-45-79.4-45-131.6s14.9-96.2,44.7-132.1c29.8-35.9,66.8-53.9,110.8-53.9c27.8,0,53.3,7.4,76.5,22.4
	c23.2,14.9,41.3,34.7,54.3,59.4L1080.1-32c-6-11.2-14.7-20.1-26.2-26.9c-11.5-6.8-24.5-10.2-39-10.2c-23.6,0-42.9,9.1-58,27.4
	C941.9-23.4,934.4,0,934.4,28.5c0,27.4,7.5,50.6,22.4,69.6s35.9,28.4,62.8,28.4c34.7,0,57.5-15.6,68.6-46.7h-72.4V1.5L1166.2,1.5
	L1166.2,1.5z M1357.1,205.3l-52-114.8h-27.3v114.8h-76.3v-355.6h119.3c30.4,0,55.9,11.6,76.5,34.8s30.9,52.6,30.9,88.2
	c0,21.3-4.6,40.9-13.6,58.7s-21.4,31.9-37.1,42.4l61.4,131.6L1357.1,205.3z M1277.8-66.5v79.8h42.2c9.4,0.3,17-3.2,23-10.7
	s8.9-17.1,8.9-29s-3-21.5-8.9-29s-13.6-11.2-23-11.2H1277.8z M1717.4,159.3c-30.2,35.7-67.2,53.6-111,53.6s-80.8-17.9-111-53.6
	S1450,79.6,1450,27.5s15.1-96.1,45.4-131.8s67.2-53.6,111-53.6s80.8,17.9,111,53.6s45.4,79.7,45.4,131.8S1747.6,123.6,1717.4,159.3z
	 M1548.8,96.8c15.3,18.1,34.5,27.2,57.5,27.2s42.2-9.1,57.5-27.2s23-41.2,23-69.3s-7.7-51.2-23-69.3s-34.5-27.2-57.5-27.2
	s-42.2,9.1-57.5,27.2s-23,41.2-23,69.3S1533.5,78.7,1548.8,96.8z M1996.9,178.9c-22,22.7-50.3,34-85,34s-63-11.4-85-34
	s-33-52.8-33-90.4v-238.8h76.3V79.8c0,29.8,13.9,44.7,41.8,44.7s41.8-14.9,41.8-44.7v-230.2h76.3V88.4
	C2029.9,126,2018.9,156.2,1996.9,178.9L1996.9,178.9z M2189.7-150.4c30.1,0,55.4,11.7,75.9,35.1c20.4,23.4,30.7,53.2,30.7,89.4
	s-10.2,66.1-30.7,89.4s-45.7,35.1-75.9,35.1h-39.6v106.7h-76.3v-355.6H2189.7L2189.7-150.4z M2189.7,12.2c8.5,0,15.7-3.6,21.5-10.7
	c5.8-7.1,8.7-16.3,8.7-27.4s-2.9-20.2-8.7-27.2s-13-10.4-21.5-10.4h-39.6v75.7L2189.7,12.2L2189.7,12.2z"/>
<path class="st5" d="M59.7,41.2c0.8-9-8.5-12-19.9-10.1l0,4l-14.4-9.7L40,15l-0.1,3.3C52.6,19.3,62.6,31.1,59.7,41.2z"/>
</svg>
