<?xml version="1.0" encoding="utf-8"?>
<!-- Generator: Adobe Illustrator 25.4.1, SVG Export Plug-In . SVG Version: 6.00 Build 0)  -->
<svg version="1.1" id="Layer_1" xmlns:xodm="http://www.corel.com/coreldraw/odm/2003"
	 xmlns="http://www.w3.org/2000/svg" xmlns:xlink="http://www.w3.org/1999/xlink" x="0px" y="0px" viewBox="0 0 300 187.07"
	 style="enable-background:new 0 0 300 187.07;" xml:space="preserve">
<style type="text/css">
	.st0{fill:#FF0000;}
	.st1{fill:#282829;}
	.st2{fill:#FEFEFE;}
	.st3{fill:#FFFFFF;}
	.st4{fill-rule:evenodd;clip-rule:evenodd;fill:#FF0000;}
	.st5{fill-rule:evenodd;clip-rule:evenodd;}
</style>
<g id="Слой_x0020_1">
	<g id="_2705373272512">
		<path class="st0" d="M78.42,38.13v17.25h-4.75l-0.01-11.64l-1.89,11.64h-3.32l-1.99-11.38l-0.01,11.38H61.7V38.13h7.01
			c0.2,1.04,0.41,2.27,0.65,3.67l0.77,4.38l1.24-8.05H78.42L78.42,38.13z M92.68,55.38h-5.43v-7.76c-0.69,0-1.13,0.09-1.33,0.28
			c-0.2,0.19-0.3,0.6-0.3,1.24v6.24h-5.04v-5.14c0-0.87,0.06-1.54,0.18-1.99c0.11-0.45,0.38-0.83,0.8-1.13
			c0.42-0.3,1.09-0.55,2-0.74c-1.25-0.09-2.06-0.39-2.43-0.88c-0.37-0.49-0.55-1.38-0.55-2.66c0-1.15,0.17-2.05,0.51-2.7
			c0.34-0.65,0.84-1.12,1.49-1.4c0.65-0.28,1.4-0.46,2.25-0.52c0.85-0.06,2.18-0.09,3.99-0.09h3.85
			C92.68,38.13,92.68,55.38,92.68,55.38z M87.25,44.91v-3.82h-0.26c-0.45,0-0.8,0.08-1.03,0.25c-0.23,0.17-0.35,0.52-0.35,1.07v0.95
			c0,0.64,0.1,1.06,0.29,1.25C86.1,44.81,86.55,44.91,87.25,44.91z M107.46,45.65h-5.43v-2.99c0-0.87-0.06-1.41-0.17-1.63
			c-0.11-0.21-0.37-0.32-0.76-0.32c-0.44,0-0.72,0.13-0.84,0.39c-0.12,0.27-0.18,0.83-0.18,1.7v8c0,0.84,0.06,1.38,0.18,1.64
			c0.12,0.25,0.39,0.38,0.8,0.38c0.4,0,0.66-0.13,0.79-0.39c0.12-0.25,0.18-0.86,0.18-1.81v-2.17h5.43v0.67
			c0,1.79-0.15,3.06-0.46,3.8c-0.3,0.75-0.98,1.4-2.02,1.97c-1.05,0.56-2.33,0.84-3.86,0.84c-1.59,0-2.9-0.24-3.93-0.71
			c-1.03-0.48-1.71-1.13-2.05-1.98c-0.33-0.84-0.5-2.11-0.5-3.8v-5.04c0-1.24,0.05-2.17,0.15-2.79c0.11-0.62,0.41-1.22,0.92-1.8
			c0.51-0.57,1.22-1.03,2.12-1.36c0.91-0.33,1.95-0.49,3.12-0.49c1.6,0,2.91,0.25,3.96,0.77c1.04,0.51,1.72,1.14,2.05,1.91
			c0.33,0.76,0.49,1.95,0.49,3.56L107.46,45.65L107.46,45.65z M121.77,48.24c0,1.73-0.05,2.96-0.15,3.68
			c-0.1,0.72-0.4,1.38-0.92,1.98c-0.52,0.6-1.22,1.05-2.11,1.37c-0.88,0.32-1.91,0.48-3.09,0.48c-1.12,0-2.11-0.15-3-0.45
			c-0.89-0.3-1.6-0.75-2.14-1.36c-0.54-0.6-0.86-1.26-0.97-1.97c-0.1-0.71-0.15-1.96-0.15-3.73v-2.95c0-1.73,0.05-2.96,0.15-3.68
			c0.1-0.72,0.4-1.38,0.92-1.98c0.52-0.6,1.22-1.05,2.11-1.37c0.88-0.32,1.91-0.48,3.09-0.48c1.12,0,2.11,0.15,3,0.45
			c0.89,0.3,1.6,0.75,2.14,1.36c0.54,0.6,0.86,1.26,0.97,1.97c0.1,0.71,0.15,1.95,0.15,3.73V48.24z M116.34,42.57
			c0-0.8-0.05-1.31-0.16-1.54c-0.11-0.22-0.32-0.33-0.65-0.33c-0.28,0-0.49,0.09-0.64,0.27c-0.15,0.18-0.22,0.71-0.22,1.6v8.05
			c0,1,0.05,1.62,0.14,1.85c0.1,0.24,0.32,0.35,0.67,0.35c0.36,0,0.59-0.13,0.69-0.4c0.1-0.27,0.15-0.91,0.15-1.93V42.57
			L116.34,42.57z"/>
		<path d="M123.81,38.13h5.43l0.03,7.28c1.01-0.02,1.52-0.49,1.56-1.41l0.1-3.37c0.04-1.24,0.33-2.08,0.87-2.51h5.01
			c-0.48,0.42-0.72,1.29-0.71,2.6l0.03,2.96c0.02,1.79-1.2,2.81-3.66,3.06c2.46,0.25,3.67,1.28,3.66,3.1l-0.03,2.74
			c-0.01,1.31,0.23,2.24,0.71,2.79h-5.01c-0.58-0.43-0.87-1.27-0.87-2.51V49.5c0-0.43-0.15-0.77-0.46-1.03
			c-0.31-0.26-0.71-0.39-1.2-0.4l-0.03,7.3h-5.43C123.81,55.38,123.81,38.13,123.81,38.13z M150.32,48.24
			c0,1.73-0.05,2.96-0.15,3.68c-0.1,0.72-0.4,1.38-0.92,1.98c-0.52,0.6-1.22,1.05-2.11,1.37c-0.88,0.32-1.91,0.48-3.09,0.48
			c-1.12,0-2.11-0.15-3-0.45c-0.89-0.3-1.6-0.75-2.14-1.36c-0.54-0.6-0.86-1.26-0.97-1.97c-0.1-0.71-0.15-1.96-0.15-3.73v-2.95
			c0-1.73,0.05-2.96,0.15-3.68c0.1-0.72,0.4-1.38,0.92-1.98c0.52-0.6,1.22-1.05,2.11-1.37c0.88-0.32,1.91-0.48,3.09-0.48
			c1.12,0,2.11,0.15,3,0.45c0.89,0.3,1.6,0.75,2.14,1.36c0.54,0.6,0.86,1.26,0.97,1.97c0.1,0.71,0.15,1.95,0.15,3.73V48.24z
			 M144.88,42.57c0-0.8-0.05-1.31-0.16-1.54c-0.11-0.22-0.32-0.33-0.65-0.33c-0.28,0-0.49,0.09-0.64,0.27
			c-0.15,0.18-0.22,0.71-0.22,1.6v8.05c0,1,0.05,1.62,0.14,1.85c0.1,0.24,0.32,0.35,0.67,0.35c0.36,0,0.59-0.13,0.69-0.4
			c0.1-0.27,0.15-0.91,0.15-1.93V42.57L144.88,42.57z M169.08,38.13v17.25h-4.75l-0.01-11.64l-1.89,11.64h-3.32l-1.99-11.38
			l-0.01,11.38h-4.75V38.13h7.01c0.2,1.04,0.41,2.27,0.65,3.67l0.77,4.38l1.24-8.05H169.08L169.08,38.13z M183.89,51.34
			c0,1.28-0.2,2.21-0.61,2.77c-0.4,0.56-1.02,0.91-1.83,1.05c-0.82,0.14-2.13,0.21-3.92,0.21h-6.27V38.13h10.63v2.99h-5.19v2.92
			h0.84c1.67,0,2.94,0.08,3.8,0.24c0.86,0.16,1.5,0.52,1.93,1.08c0.43,0.56,0.64,1.43,0.64,2.62L183.89,51.34L183.89,51.34z
			 M178.46,50.82v-2.49c0-0.73-0.09-1.17-0.26-1.32c-0.18-0.16-0.68-0.24-1.5-0.27v5.67c0.69,0,1.16-0.07,1.4-0.22
			C178.34,52.05,178.46,51.59,178.46,50.82z M197.89,55.38h-4.54v-7.85l-2.82,7.85h-4.72V38.13h4.54v7.78l3.03-7.78h4.51
			L197.89,55.38L197.89,55.38z M212.53,38.13v17.25h-5.43v-7.24h-1.58v7.24h-5.43V38.13h5.43v6.17h1.58v-6.17H212.53z M224.08,38.13
			l3.1,17.25h-5.54l-0.29-3.1h-1.96l-0.29,3.1h-5.61l2.75-17.25H224.08L224.08,38.13z M221.2,49.23c-0.26-1.96-0.53-4.38-0.82-7.26
			c-0.54,3.31-0.87,5.73-1.02,7.26H221.2z M239.03,38.13v3.44h-3.19v13.8h-5.43v-13.8h-3.22v-3.44L239.03,38.13L239.03,38.13z"/>
	</g>
	<path class="st0" d="M169.14,90.86V62.54h13.65v62.76h-14.28l-8.49-28.55v28.55h-13.65V62.54h13.65L169.14,90.86z M186.99,104.1
		V92.75c0-2.96,0.3-5.25,0.93-6.84c0.62-1.59,1.9-2.83,3.83-3.72c1.94-0.89,4.1-1.34,6.48-1.34c2.86,0,5.3,0.54,7.31,1.64
		c2.02,1.1,3.28,2.41,3.78,3.9c0.5,1.49,0.75,3.61,0.75,6.35v10.8c0,4.63-0.99,7.71-2.96,9.26c-1.98,1.55-4.69,2.33-8.16,2.33
		c-2.33,0-4.28-0.26-5.91-0.78c-1.61-0.52-2.92-1.34-3.93-2.47c-1-1.14-1.61-2.25-1.82-3.33
		C187.1,107.47,186.99,105.99,186.99,104.1L186.99,104.1z M200.16,106.07V90.1c0-1.52-0.08-2.53-0.25-3.01
		c-0.17-0.49-0.63-0.74-1.41-0.74c-1.06,0-1.59,0.79-1.59,2.39v18.6c0,0.75,0.09,1.32,0.26,1.73c0.19,0.4,0.65,0.59,1.4,0.59
		c0.73,0,1.16-0.25,1.34-0.74C200.08,108.44,200.16,107.48,200.16,106.07L200.16,106.07z M186.12,117.2h24.91v6.66h-24.91V117.2z
		 M238.97,62.54v62.76h-15.63V91.6c0-4.87-0.12-7.8-0.34-8.78c-0.24-0.98-0.87-1.73-1.92-2.23c-1.04-0.5-3.37-0.75-6.98-0.75h-1.55
		v-7.29c7.56-1.61,13.3-4.96,17.22-10.01L238.97,62.54L238.97,62.54z"/>
	<path class="st1" d="M83.56,77.07c0,0-1.85,0.9-2.17,1.36c-0.32,0.45-1.08,1.22-2.03,1.31c-0.95,0.09-1.94-0.68-3.66-1.54
		c-1.72-0.86-3.66-2.58-6.51-2.26c-2.85,0.32-4.7,1.31-6.06,2.17c-1.36,0.86-2.17,2.4-1.27,3.66s2.76,3.25,3.53,3.71
		c0.77,0.45,1.04,1.72,3.34,2.89c2.3,1.18,4.79,1.27,6.46,1.08c1.67-0.18,3.16-0.18,3.16-0.18s0,1.13,0.41,2.4
		c0.41,1.27,1.67,3.3,2.03,4.29c0.36,0.99,0.14,2.94,0.05,4.52c-0.09,1.58,0.05,6.33,0.41,7.41c0.36,1.08,0.77,3.75,0.5,4.52
		c-0.27,0.77-0.54,4.11-0.23,5.51c0.32,1.4,0.36,1.85,0.72,1.72c0.36-0.14,0.23-2.67,0.63-3.71c0.41-1.04,0.68-1.18,0.68-2.21
		c0-1.04,0.14-1.67,0.72-1.63c0.59,0.05,0.86,0.41,1.54,0.32c0.68-0.09,2.12-2.71,2.67-2.98c0.54-0.27,1.04-5.2,0.81-5.97
		c0,0,0.9-2.21,0.54-3.75c-0.36-1.54-0.18-4.07-1.27-6.73c-1.08-2.67-1.9-4.97-2.08-6.78c-0.18-1.81-0.18-3.53-1.31-4.61
		C84.06,80.51,83.56,77.07,83.56,77.07L83.56,77.07z"/>
	<path class="st2" d="M63.52,80.86c0.82-0.73,3.62-1.91,5.17-0.53c-0.79,0.36-0.99,0.71-0.99,0.71s2.36,0.15,3.02,1.51
		c-0.65,0.01-0.89,0.19-0.89,0.19c3.17,1.15,3.21,2.25,7.88,2.15c-0.3,0.61-1.1,3.2-5.09,2.98S64.91,84.69,63.52,80.86z"/>
	<path class="st1" d="M102.08,77.07c0,0,1.85,0.9,2.17,1.36c0.32,0.45,1.08,1.22,2.03,1.31c0.95,0.09,1.94-0.68,3.66-1.54
		c1.72-0.86,3.66-2.58,6.51-2.26c2.85,0.32,4.7,1.31,6.06,2.17c1.36,0.86,2.17,2.4,1.27,3.66c-0.9,1.27-2.76,3.25-3.53,3.71
		c-0.77,0.45-1.04,1.72-3.34,2.89c-2.3,1.18-4.79,1.27-6.46,1.08c-1.67-0.18-3.16-0.18-3.16-0.18s0,1.13-0.41,2.4
		c-0.41,1.27-1.67,3.3-2.03,4.29c-0.36,0.99-0.14,2.94-0.05,4.52c0.09,1.58-0.05,6.33-0.41,7.41c-0.36,1.08-0.77,3.75-0.5,4.52
		c0.27,0.77,0.54,4.11,0.23,5.51c-0.32,1.4-0.36,1.85-0.72,1.72c-0.36-0.14-0.23-2.67-0.63-3.71c-0.41-1.04-0.68-1.18-0.68-2.21
		c0-1.04-0.14-1.67-0.72-1.63c-0.59,0.05-0.86,0.41-1.54,0.32c-0.68-0.09-2.12-2.71-2.67-2.98c-0.54-0.27-1.04-5.2-0.81-5.97
		c0,0-0.9-2.21-0.54-3.75c0.36-1.54,0.18-4.07,1.27-6.73c1.08-2.67,1.9-4.97,2.08-6.78c0.18-1.81,0.18-3.53,1.31-4.61
		C101.58,80.51,102.08,77.07,102.08,77.07L102.08,77.07z"/>
	<path class="st2" d="M122.12,80.86c-0.82-0.73-3.62-1.91-5.17-0.53c0.79,0.36,0.99,0.71,0.99,0.71s-2.36,0.15-3.02,1.51
		c0.65,0.01,0.89,0.19,0.89,0.19c-3.17,1.15-3.22,2.25-7.88,2.15c0.3,0.61,1.1,3.2,5.09,2.98
		C117.01,87.65,120.74,84.69,122.12,80.86z"/>
	<path class="st1" d="M100.67,115.97c-1.1-0.66-1.22,0.08-2.32,0c-1.1-0.08-1.35-2.29-2.74-2.44c-1.39-0.15-2.78,0.74-2.78,0.74
		s-1.39-0.89-2.78-0.74c-1.39,0.15-1.64,2.36-2.74,2.44s-1.22-0.66-2.32,0c-1.1,0.66-1.69,2.42-1.01,3.86
		c0.67,1.45,3.08,2.61,3.29,3.46c0.21,0.85,0.76,2.13,2.15,2.21c1.39,0.08,3.42-0.35,3.42-0.35s2.02,0.43,3.42,0.35
		c1.39-0.08,1.94-1.36,2.15-2.21c0.21-0.85,2.62-2.01,3.29-3.46S101.76,116.63,100.67,115.97L100.67,115.97z"/>
	<path class="st2" d="M86.83,118.34c0.62,0.15,0.84,1.16,1.42,1.5c0.58,0.34,1.62,2.14,0.78,2.43c-0.84,0.28-2.31-0.46-2.47-1.21
		c-0.17-0.75,0.45-0.96,0-1.39c-0.45-0.44-0.87-0.85-1.04-1.47c-0.17-0.62-0.39-1.08,0-1.08C85.91,117.1,86.21,118.18,86.83,118.34
		L86.83,118.34z"/>
	<path class="st2" d="M98.81,118.34c-0.62,0.15-0.84,1.16-1.42,1.5c-0.58,0.34-1.62,2.14-0.78,2.43c0.84,0.28,2.31-0.46,2.47-1.21
		c0.17-0.75-0.45-0.96,0-1.39c0.45-0.44,0.87-0.85,1.04-1.47c0.17-0.62,0.39-1.08,0-1.08C99.74,117.1,99.43,118.18,98.81,118.34
		L98.81,118.34z"/>
	<path class="st1" d="M99.46,73.9c0,0,1.03-0.17,1.3-0.68c-2.77,0.19-3.55-0.53-4.73-1.06C94.84,71.63,93,71.91,93,71.91h-0.37
		c0,0-1.84-0.29-3.02,0.24c-1.18,0.53-1.96,1.26-4.73,1.06c0.28,0.52,1.3,0.68,1.3,0.68s-0.84,1.61-2.77,1.9
		c2.27,0.51,3.55-0.3,3.55-0.3s0.54,0.65,0.37,1.34c0.69-0.26,0.98-1.46,0.98-1.46s-0.15,1.98-0.63,2.24c0.7-0.06,1.2-0.93,1.2-0.93
		s-0.37,1.88,0.84,2.66c0.02-0.47,0.12-0.87,0.12-0.87c0.67,1.53,2.08,1.4,2.96,2.37l0.02,0.02l0.02-0.02
		c0.88-0.97,2.29-0.84,2.96-2.37c0,0,0.11,0.4,0.12,0.87c1.21-0.78,0.84-2.66,0.84-2.66s0.49,0.87,1.2,0.93
		c-0.47-0.26-0.63-2.24-0.63-2.24s0.29,1.2,0.98,1.46c-0.17-0.69,0.37-1.34,0.37-1.34s1.29,0.8,3.55,0.3
		C100.3,75.51,99.46,73.9,99.46,73.9L99.46,73.9z"/>
	<path class="st3" d="M102.56,94.14c0,0,2.66,0.56,3.39-1.01c0.6-1.29-0.47-2.48-0.47-2.48s0.24-0.41,1.22-0.55
		c0.02-0.28-1.22-0.62-2.55,0.5C102.82,91.72,102.56,94.14,102.56,94.14z"/>
	<path class="st2" d="M104.63,91.63c0,0.21,0.17,0.37,0.37,0.37c0.21,0,0.37-0.17,0.37-0.37s-0.17-0.37-0.37-0.37
		C104.8,91.25,104.63,91.42,104.63,91.63z"/>
	<path class="st2" d="M105.84,92.27c0.26,1.09-1.02,1.6-1.71,1.31C104.65,93.55,105.67,93.46,105.84,92.27z"/>
	<path class="st3" d="M83.09,94.14c0,0-2.66,0.56-3.39-1.01c-0.6-1.29,0.47-2.48,0.47-2.48s-0.24-0.41-1.22-0.55
		c-0.02-0.28,1.22-0.62,2.55,0.5C82.82,91.72,83.09,94.14,83.09,94.14z"/>
	<path class="st2" d="M81.02,91.63c0,0.21-0.17,0.37-0.37,0.37c-0.21,0-0.37-0.17-0.37-0.37s0.17-0.37,0.37-0.37
		C80.85,91.25,81.02,91.42,81.02,91.63z"/>
	<path class="st2" d="M79.8,92.27c-0.26,1.09,1.02,1.6,1.71,1.31C80.99,93.55,79.98,93.46,79.8,92.27z"/>
	<path class="st1" d="M85.02,74.24c0,0-8.04-1.11-11.81-3.71s-3.91-5.28-3.52-6.66c0.39-1.37-0.46-2.48-1.54-0.53
		c-1.08,1.94-1.25,7.31,2.05,10.36c3.3,3.05,9.36,5.35,9.36,5.35s1.33-0.74,1.88-1.39c0.55-0.65,0.97-0.7,1.35-1.63
		C83.16,75.09,85.02,74.24,85.02,74.24L85.02,74.24z"/>
	<path class="st1" d="M100.63,74.24c0,0,8.04-1.11,11.81-3.71s3.91-5.28,3.52-6.66c-0.39-1.37,0.46-2.48,1.54-0.53
		c1.08,1.94,1.25,7.31-2.05,10.36s-9.36,5.35-9.36,5.35s-1.33-0.74-1.88-1.39c-0.55-0.65-0.97-0.7-1.35-1.63
		C102.48,75.09,100.63,74.24,100.63,74.24L100.63,74.24z"/>
	<path d="M92.28,146.96l1.76-8.4h2.68c0.49,0,0.85,0.02,1.09,0.06c0.39,0.06,0.71,0.18,0.98,0.34c0.27,0.16,0.47,0.39,0.62,0.66
		c0.15,0.28,0.22,0.59,0.22,0.93c0,0.46-0.13,0.87-0.38,1.22c-0.25,0.35-0.65,0.62-1.17,0.8c0.46,0.15,0.8,0.37,1.03,0.67
		c0.23,0.3,0.34,0.65,0.34,1.05c0,0.46-0.13,0.91-0.41,1.33c-0.27,0.42-0.63,0.75-1.08,0.98c-0.45,0.23-0.95,0.35-1.5,0.35
		L92.28,146.96L92.28,146.96z M94.4,142.15h1.79c0.85,0,1.47-0.13,1.83-0.39c0.37-0.26,0.55-0.64,0.55-1.14
		c0-0.24-0.06-0.44-0.17-0.62c-0.12-0.17-0.27-0.3-0.47-0.38c-0.2-0.08-0.56-0.12-1.1-0.12h-1.88L94.4,142.15L94.4,142.15z
		 M93.6,146.01h1.98c0.53,0,0.88-0.02,1.06-0.05c0.37-0.06,0.67-0.17,0.9-0.31c0.23-0.15,0.41-0.34,0.54-0.58
		c0.13-0.24,0.2-0.49,0.2-0.76c0-0.39-0.13-0.69-0.38-0.9c-0.25-0.21-0.74-0.31-1.46-0.31h-2.23L93.6,146.01L93.6,146.01z
		 M107.24,140.87h1.03l-1.28,6.09h-1.03L107.24,140.87z M101.24,140.87h1.04l-0.5,2.36h1.11c0.71,0,1.21,0.05,1.52,0.15
		c0.3,0.1,0.54,0.29,0.71,0.57c0.17,0.27,0.26,0.58,0.26,0.91c0,0.4-0.12,0.79-0.35,1.16c-0.23,0.37-0.52,0.62-0.87,0.75
		c-0.34,0.13-0.88,0.19-1.6,0.19h-2.59L101.24,140.87L101.24,140.87z M101.17,146.14h1.32c0.52,0,0.88-0.04,1.09-0.1
		c0.21-0.07,0.39-0.19,0.53-0.38c0.14-0.18,0.22-0.4,0.22-0.66c0-0.23-0.06-0.42-0.19-0.58c-0.13-0.16-0.28-0.26-0.44-0.3
		c-0.17-0.04-0.47-0.05-0.91-0.05h-1.18L101.17,146.14L101.17,146.14z M114.23,138.41h1.01c-0.12,0.58-0.33,0.94-0.65,1.08
		c-0.32,0.13-0.7,0.2-1.14,0.2l-1.06-0.02c-0.38,0-0.67,0.06-0.87,0.17c-0.21,0.12-0.37,0.27-0.5,0.47
		c-0.13,0.19-0.34,0.63-0.63,1.31c0.41-0.38,0.79-0.6,1.15-0.66c0.35-0.06,0.62-0.1,0.79-0.1c0.56,0,1.1,0.21,1.59,0.63
		c0.49,0.42,0.74,1.05,0.74,1.89c0,0.99-0.3,1.85-0.91,2.59c-0.6,0.74-1.4,1.11-2.38,1.11c-0.77,0-1.38-0.23-1.81-0.71
		c-0.43-0.47-0.65-1.09-0.65-1.84c0-0.83,0.21-1.85,0.62-3.05c0.41-1.2,0.87-1.97,1.36-2.32c0.49-0.34,1.12-0.51,1.88-0.51
		l0.92,0.02C114,138.68,114.18,138.59,114.23,138.41L114.23,138.41z M113.62,143.35c0-0.49-0.12-0.9-0.37-1.2s-0.6-0.46-1.04-0.46
		c-0.68,0-1.23,0.3-1.65,0.89c-0.42,0.59-0.63,1.27-0.63,2.04c0,0.43,0.13,0.81,0.39,1.13c0.26,0.32,0.62,0.49,1.06,0.49
		c0.67,0,1.21-0.32,1.62-0.96C113.42,144.65,113.62,144,113.62,143.35L113.62,143.35z M115.41,144.64c0-1.19,0.35-2.17,1.05-2.94
		c0.58-0.64,1.33-0.96,2.27-0.96c0.73,0,1.32,0.23,1.77,0.69c0.45,0.46,0.67,1.08,0.67,1.85c0,0.7-0.14,1.35-0.42,1.95
		c-0.28,0.6-0.68,1.06-1.2,1.38c-0.52,0.32-1.07,0.48-1.65,0.48c-0.47,0-0.9-0.1-1.29-0.3c-0.39-0.2-0.68-0.49-0.89-0.86
		C115.51,145.55,115.41,145.13,115.41,144.64L115.41,144.64z M116.44,144.54c0,0.57,0.14,1.01,0.41,1.3
		c0.28,0.3,0.63,0.44,1.05,0.44c0.22,0,0.44-0.04,0.66-0.14c0.22-0.09,0.42-0.22,0.61-0.41c0.19-0.18,0.35-0.39,0.48-0.63
		c0.13-0.23,0.24-0.49,0.32-0.76c0.12-0.38,0.18-0.74,0.18-1.09c0-0.55-0.14-0.98-0.42-1.28c-0.28-0.3-0.63-0.46-1.05-0.46
		c-0.33,0-0.62,0.08-0.89,0.23c-0.27,0.15-0.51,0.38-0.73,0.68c-0.22,0.3-0.38,0.64-0.48,1.04
		C116.5,143.88,116.44,144.23,116.44,144.54z M121.27,149.29l1.76-8.42h0.96l-0.18,0.85c0.35-0.37,0.67-0.63,0.95-0.77
		c0.28-0.14,0.58-0.21,0.89-0.21c0.58,0,1.06,0.21,1.45,0.63c0.38,0.42,0.57,1.02,0.57,1.81c0,0.63-0.11,1.21-0.32,1.73
		c-0.21,0.52-0.47,0.94-0.77,1.26c-0.31,0.32-0.62,0.55-0.93,0.7c-0.31,0.15-0.64,0.22-0.96,0.22c-0.73,0-1.3-0.37-1.7-1.11
		l-0.69,3.32L121.27,149.29L121.27,149.29z M123.31,144.47c0,0.45,0.03,0.77,0.1,0.94c0.1,0.25,0.25,0.45,0.47,0.6
		c0.22,0.15,0.47,0.23,0.76,0.23c0.6,0,1.08-0.33,1.45-1.01c0.37-0.67,0.55-1.35,0.55-2.05c0-0.51-0.12-0.91-0.37-1.19
		c-0.25-0.28-0.55-0.42-0.92-0.42c-0.26,0-0.51,0.07-0.74,0.21c-0.23,0.14-0.44,0.35-0.63,0.63c-0.19,0.28-0.35,0.62-0.48,1.02
		C123.38,143.83,123.31,144.18,123.31,144.47L123.31,144.47z M133.4,138.56h5.47l-0.21,0.96h-4.35l-0.55,2.62h1.71
		c0.84,0,1.44,0.06,1.79,0.19c0.35,0.13,0.64,0.34,0.88,0.66c0.24,0.31,0.35,0.71,0.35,1.17c0,0.56-0.16,1.07-0.49,1.54
		c-0.33,0.47-0.73,0.79-1.2,0.99c-0.47,0.19-1.24,0.29-2.3,0.29h-2.87C131.64,146.96,133.4,138.56,133.4,138.56z M132.96,146.01
		h0.99c0.99,0,1.7-0.06,2.13-0.17c0.42-0.11,0.75-0.32,0.97-0.64c0.22-0.31,0.34-0.64,0.34-1c0-0.26-0.07-0.49-0.22-0.67
		c-0.15-0.18-0.35-0.3-0.61-0.36c-0.26-0.06-0.66-0.09-1.22-0.09h-1.77L132.96,146.01z M139.36,144.64c0-1.19,0.35-2.17,1.05-2.94
		c0.58-0.64,1.33-0.96,2.27-0.96c0.73,0,1.32,0.23,1.77,0.69c0.45,0.46,0.67,1.08,0.67,1.85c0,0.7-0.14,1.35-0.42,1.95
		c-0.28,0.6-0.68,1.06-1.2,1.38c-0.52,0.32-1.07,0.48-1.65,0.48c-0.47,0-0.9-0.1-1.29-0.3c-0.39-0.2-0.68-0.49-0.89-0.86
		C139.46,145.55,139.36,145.13,139.36,144.64L139.36,144.64z M140.39,144.54c0,0.57,0.14,1.01,0.41,1.3
		c0.28,0.3,0.63,0.44,1.05,0.44c0.22,0,0.44-0.04,0.66-0.14c0.22-0.09,0.42-0.22,0.61-0.41c0.19-0.18,0.35-0.39,0.48-0.63
		c0.13-0.23,0.24-0.49,0.32-0.76c0.12-0.38,0.18-0.74,0.18-1.09c0-0.55-0.14-0.98-0.42-1.28c-0.28-0.3-0.63-0.46-1.05-0.46
		c-0.33,0-0.62,0.08-0.89,0.23c-0.27,0.15-0.51,0.38-0.73,0.68c-0.22,0.3-0.38,0.64-0.48,1.04
		C140.44,143.88,140.39,144.23,140.39,144.54z M147.1,140.87h4.6l-1.25,6.09h-1.03l1.09-5.22h-2.57l-0.75,3.63
		c-0.13,0.62-0.31,1.06-0.53,1.31c-0.22,0.25-0.54,0.37-0.93,0.37c-0.23,0-0.53-0.03-0.91-0.08l0.19-0.86
		c0.16,0.01,0.31,0.02,0.44,0.02c0.26,0,0.44-0.07,0.52-0.2c0.08-0.13,0.2-0.53,0.34-1.21L147.1,140.87L147.1,140.87z
		 M153.31,140.87h1.04l-0.5,2.36h1.11c0.71,0,1.21,0.05,1.52,0.15c0.3,0.1,0.54,0.29,0.71,0.57c0.17,0.27,0.26,0.58,0.26,0.91
		c0,0.4-0.12,0.79-0.35,1.16c-0.23,0.37-0.52,0.62-0.87,0.75c-0.34,0.13-0.88,0.19-1.6,0.19h-2.59L153.31,140.87L153.31,140.87z
		 M153.24,146.13h1.32c0.52,0,0.88-0.04,1.09-0.1c0.21-0.07,0.39-0.19,0.53-0.38c0.14-0.18,0.22-0.4,0.22-0.66
		c0-0.23-0.06-0.42-0.19-0.58c-0.13-0.16-0.28-0.26-0.44-0.3c-0.17-0.04-0.47-0.05-0.91-0.05h-1.18L153.24,146.13L153.24,146.13z
		 M159.48,140.87h1.03l-0.82,3.88c-0.07,0.36-0.11,0.62-0.11,0.79c0,0.22,0.06,0.39,0.17,0.5c0.11,0.11,0.29,0.17,0.51,0.17
		c0.35,0,0.67-0.1,0.97-0.3c0.3-0.2,0.53-0.44,0.7-0.71c0.17-0.27,0.32-0.68,0.43-1.23l0.65-3.09h1.03l-0.84,3.97
		c-0.06,0.3-0.09,0.54-0.09,0.71c0,0.22,0.05,0.38,0.16,0.49c0.11,0.11,0.27,0.17,0.48,0.17c0.44,0,0.87-0.19,1.3-0.58
		c0.43-0.39,0.72-0.99,0.87-1.8c0.01-0.04,0.02-0.08,0.02-0.13l0.62-2.83h1.03l-1.28,6.09h-1.03l0.22-1.03
		c-0.57,0.77-1.23,1.16-1.98,1.16c-0.42,0-0.76-0.12-1.03-0.36c-0.27-0.24-0.41-0.5-0.43-0.8c-0.32,0.39-0.65,0.67-1,0.87
		c-0.34,0.19-0.7,0.29-1.07,0.29c-0.42,0-0.76-0.12-1.05-0.35c-0.28-0.24-0.42-0.55-0.42-0.93c0-0.27,0.06-0.71,0.19-1.33
		L159.48,140.87L159.48,140.87z M172.13,145.86c-0.73,0.82-1.48,1.23-2.24,1.23c-0.47,0-0.85-0.13-1.14-0.4
		c-0.29-0.27-0.43-0.6-0.43-0.98c0-0.26,0.07-0.69,0.21-1.32l0.8-3.52h1.04l-0.89,3.94c-0.07,0.33-0.11,0.58-0.11,0.77
		c0,0.21,0.07,0.37,0.21,0.49c0.14,0.12,0.35,0.18,0.63,0.18c0.3,0,0.58-0.07,0.86-0.21c0.28-0.14,0.52-0.33,0.73-0.57
		c0.2-0.24,0.37-0.52,0.5-0.85c0.08-0.21,0.18-0.57,0.3-1.1l0.58-2.65h1.03l-1.35,6.09h-0.96L172.13,145.86L172.13,145.86z
		 M175.74,140.87h1.03l-0.54,2.55h2.82l0.53-2.55h1.02l-1.26,6.09h-1.03l0.57-2.72h-2.81l-0.57,2.72h-1.03L175.74,140.87
		L175.74,140.87z M185.15,144.74l1.04,0.11c-0.26,0.76-0.63,1.32-1.11,1.69c-0.48,0.37-1.02,0.55-1.64,0.55
		c-0.66,0-1.2-0.21-1.61-0.64c-0.41-0.43-0.62-1.02-0.62-1.79c0-0.66,0.13-1.31,0.4-1.96c0.26-0.64,0.64-1.13,1.13-1.46
		c0.49-0.33,1.05-0.5,1.68-0.5c0.65,0,1.17,0.18,1.55,0.55c0.38,0.37,0.57,0.86,0.57,1.46l-1.02,0.07c0-0.39-0.12-0.69-0.34-0.91
		c-0.22-0.22-0.51-0.33-0.87-0.33c-0.42,0-0.78,0.13-1.09,0.4c-0.3,0.26-0.55,0.66-0.72,1.2c-0.17,0.54-0.26,1.05-0.26,1.55
		c0,0.52,0.12,0.91,0.34,1.17c0.23,0.26,0.51,0.39,0.85,0.39c0.34,0,0.66-0.13,0.97-0.38C184.73,145.65,184.97,145.26,185.15,144.74
		L185.15,144.74z M186.82,146.96l1.28-6.09h1.03l-0.21,1.01c0.39-0.43,0.73-0.73,1.03-0.89c0.3-0.16,0.63-0.25,0.99-0.25
		c0.38,0,0.7,0.1,0.95,0.3c0.25,0.2,0.42,0.48,0.5,0.84c0.31-0.38,0.64-0.67,0.98-0.86c0.34-0.19,0.7-0.28,1.08-0.28
		c0.51,0,0.89,0.12,1.14,0.36c0.25,0.24,0.38,0.58,0.38,1.01c0,0.19-0.04,0.5-0.13,0.93l-0.83,3.92h-1.03l0.84-4.02
		c0.07-0.33,0.11-0.56,0.11-0.7c0-0.2-0.06-0.36-0.19-0.47c-0.13-0.12-0.3-0.17-0.54-0.17c-0.31,0-0.63,0.09-0.95,0.28
		c-0.32,0.19-0.57,0.43-0.75,0.73c-0.18,0.3-0.33,0.77-0.47,1.4l-0.62,2.95h-1.03l0.86-4.1c0.06-0.28,0.09-0.48,0.09-0.6
		c0-0.2-0.06-0.36-0.19-0.48c-0.13-0.12-0.29-0.18-0.49-0.18c-0.3,0-0.6,0.09-0.93,0.28c-0.32,0.19-0.59,0.45-0.79,0.78
		c-0.2,0.33-0.37,0.81-0.5,1.43l-0.6,2.88L186.82,146.96L186.82,146.96z M200.65,143.77c0.39,0.14,0.68,0.32,0.87,0.55
		c0.19,0.23,0.29,0.52,0.29,0.85c0,0.46-0.21,0.9-0.62,1.3c-0.41,0.4-1.02,0.61-1.82,0.61c-0.6,0-1.08-0.1-1.43-0.3
		c-0.35-0.2-0.63-0.49-0.84-0.87c-0.21-0.38-0.31-0.79-0.31-1.26c0-1.08,0.31-2,0.93-2.77c0.62-0.77,1.46-1.15,2.51-1.15
		c0.63,0,1.12,0.15,1.45,0.44c0.33,0.29,0.5,0.65,0.5,1.07c0,0.39-0.13,0.71-0.38,0.96C201.54,143.46,201.16,143.65,200.65,143.77
		L200.65,143.77z M198.04,143.34c0.28,0.02,0.52,0.04,0.72,0.04c0.79,0,1.38-0.09,1.77-0.26c0.39-0.17,0.59-0.43,0.59-0.77
		c0-0.22-0.08-0.41-0.25-0.56c-0.17-0.15-0.39-0.22-0.67-0.22c-0.48,0-0.91,0.16-1.31,0.48
		C198.48,142.35,198.2,142.79,198.04,143.34z M197.87,144.15c-0.03,0.16-0.04,0.33-0.04,0.49c0,0.48,0.14,0.88,0.41,1.19
		c0.28,0.31,0.67,0.46,1.19,0.46c0.4,0,0.72-0.11,0.96-0.32s0.36-0.47,0.36-0.78c0-0.42-0.17-0.7-0.5-0.84
		c-0.33-0.14-0.94-0.21-1.82-0.21C198.34,144.15,198.16,144.15,197.87,144.15L197.87,144.15z M206.56,146.2
		c-0.36,0.31-0.71,0.53-1.04,0.67c-0.33,0.14-0.69,0.21-1.07,0.21c-0.56,0-1.01-0.16-1.36-0.49c-0.34-0.33-0.52-0.75-0.52-1.27
		c0-0.34,0.08-0.64,0.23-0.9c0.15-0.26,0.36-0.47,0.61-0.63c0.26-0.16,0.57-0.27,0.94-0.34c0.23-0.05,0.68-0.08,1.33-0.11
		c0.65-0.03,1.12-0.1,1.41-0.21c0.08-0.28,0.12-0.52,0.12-0.71c0-0.24-0.09-0.43-0.26-0.57c-0.24-0.19-0.59-0.29-1.06-0.29
		c-0.44,0-0.79,0.1-1.07,0.29c-0.28,0.19-0.48,0.47-0.61,0.83l-1.04-0.09c0.21-0.6,0.55-1.06,1.01-1.38
		c0.46-0.32,1.05-0.48,1.75-0.48c0.75,0,1.35,0.18,1.79,0.54c0.33,0.27,0.5,0.62,0.5,1.04c0,0.32-0.05,0.7-0.14,1.13l-0.33,1.51
		c-0.11,0.48-0.16,0.87-0.16,1.17c0,0.19,0.04,0.47,0.13,0.83h-1.05C206.63,146.76,206.59,146.51,206.56,146.2L206.56,146.2z
		 M206.95,143.87c-0.15,0.06-0.3,0.1-0.47,0.13c-0.17,0.03-0.45,0.06-0.84,0.1c-0.6,0.05-1.03,0.12-1.28,0.2
		c-0.25,0.08-0.44,0.21-0.56,0.39c-0.13,0.18-0.19,0.38-0.19,0.59c0,0.29,0.1,0.53,0.3,0.72c0.2,0.19,0.49,0.28,0.86,0.28
		c0.34,0,0.67-0.09,0.99-0.27c0.32-0.18,0.57-0.43,0.75-0.76C206.7,144.93,206.85,144.47,206.95,143.87L206.95,143.87z"/>
	<polygon class="st4" points="223,144.08 239.41,144.08 239.41,143.63 223,143.63 	"/>
	<polygon class="st4" points="60.59,144.08 76.46,144.08 76.46,143.63 60.59,143.63 	"/>
</g>
<g id="Слой_x0020_1_00000064325854722823964680000006613033994819722919_">
	<rect x="205.82" y="-38.83" class="st4" width="88.88" height="1.01"/>
	<rect x="205.82" y="-33.27" class="st5" width="44.44" height="1.01"/>
	<rect x="205.82" y="-27.72" class="st5" width="22.22" height="1.01"/>
	<rect x="205.82" y="-44.39" class="st5" width="44.44" height="1.01"/>
	<rect x="205.82" y="-49.94" class="st5" width="22.22" height="1.01"/>
</g>
<g id="Слой_x0020_1_00000044877629646857692070000007607169324792087698_">
	<rect x="2.83" y="-33.78" class="st4" width="88.88" height="1.01"/>
	<rect x="47.27" y="-28.23" class="st5" width="44.44" height="1.01"/>
	<rect x="69.49" y="-22.67" class="st5" width="22.22" height="1.01"/>
	<rect x="47.27" y="-39.34" class="st5" width="44.44" height="1.01"/>
	<rect x="69.49" y="-44.89" class="st5" width="22.22" height="1.01"/>
</g>
</svg>
