<?xml version="1.0" encoding="utf-8"?>
<!-- Generator: Adobe Illustrator 25.4.1, SVG Export Plug-In . SVG Version: 6.00 Build 0)  -->
<svg version="1.1" id="Layer_1" xmlns="http://www.w3.org/2000/svg" xmlns:xlink="http://www.w3.org/1999/xlink" x="0px" y="0px"
	 viewBox="0 0 300 18.25" style="enable-background:new 0 0 300 18.25;" xml:space="preserve">
<style type="text/css">
	.st0{display:none;fill:none;stroke:#231F27;stroke-width:0.216;stroke-miterlimit:10;}
	.st1{display:none;fill:#2F2F2F;}
	.st2{fill:none;stroke:#285BA7;stroke-miterlimit:10;}
	.st3{fill:none;stroke:#E52721;stroke-miterlimit:10;}
</style>
<path class="st0" d="M-3058.31-905.26h5669.3V937.26h-5669.3V-905.26z"/>
<path class="st1" d="M-1499.51-174.37c30.11,0,55.39,11.69,75.85,35.06c20.45,23.37,30.68,53.18,30.68,89.42
	s-10.23,66.05-30.68,89.42c-20.45,23.37-45.74,35.06-75.85,35.06h-39.63v106.69h-76.27v-355.65H-1499.51z M-1499.51-11.79
	c8.52,0,15.7-3.56,21.52-10.67c5.82-7.11,8.73-16.26,8.73-27.44s-2.91-20.24-8.73-27.18s-13-10.42-21.52-10.42h-39.63v75.7
	L-1499.51-11.79L-1499.51-11.79z M-1207.62,181.28l-51.99-114.82h-27.27v114.82h-76.27v-355.65h119.31c30.4,0,55.89,11.6,76.49,34.8
	s30.89,52.59,30.89,88.15c0,21.34-4.55,40.9-13.64,58.68s-21.45,31.92-37.07,42.42l61.36,131.59L-1207.62,181.28L-1207.62,181.28z
	 M-1286.88-90.54v79.77h42.19c9.37,0.34,17.04-3.22,23.01-10.67s8.95-17.11,8.95-28.96s-2.98-21.51-8.95-28.96
	s-13.64-11.18-23.01-11.18H-1286.88z M-847.34,135.3c-30.25,35.73-67.26,53.6-111,53.6c-43.75,0-80.75-17.87-111-53.6
	s-45.38-79.68-45.38-131.84s15.13-96.11,45.38-131.84s67.26-53.6,111-53.6c43.75,0,80.75,17.87,111,53.6s45.38,79.68,45.38,131.84
	S-817.09,99.57-847.34,135.3L-847.34,135.3z M-1015.87,72.81c15.34,18.12,34.52,27.18,57.53,27.18s42.19-9.06,57.53-27.18
	s23.01-41.24,23.01-69.35s-7.67-51.23-23.01-69.35s-34.52-27.18-57.53-27.18s-42.19,9.06-57.53,27.18
	c-15.34,18.12-23.01,41.24-23.01,69.35S-1031.21,54.69-1015.87,72.81z M-669.88-174.37h76.27v355.65h-76.27V-174.37L-669.88-174.37z
	 M-242.47-174.37v355.65h-75.85V-10.26l-72.44,142.77h-7.67L-470.44-9.75v191.03h-76.27v-355.65h76.27l75.85,151.91l76.27-151.91
	H-242.47L-242.47-174.37z M-79.27-174.37c30.11,0,55.4,11.69,75.85,35.06s30.68,53.18,30.68,89.42S17.03,16.16-3.42,39.53
	s-45.74,35.06-75.85,35.06h-39.63v106.69h-76.27v-355.65H-79.27L-79.27-174.37z M-79.27-11.79c8.52,0,15.7-3.56,21.52-10.67
	s8.74-16.26,8.74-27.44s-2.91-20.24-8.74-27.18c-5.82-6.94-13-10.42-21.52-10.42h-39.63v75.7L-79.27-11.79L-79.27-11.79z
	 M312.54,135.3c-30.25,35.73-67.25,53.6-111,53.6s-80.75-17.87-111-53.6S45.16,55.62,45.16,3.46s15.13-96.11,45.38-131.84
	s67.26-53.6,111-53.6s80.75,17.87,111,53.6S357.92-48.7,357.92,3.46S342.79,99.57,312.54,135.3z M144.01,72.81
	c15.34,18.12,34.51,27.18,57.53,27.18c23.01,0,42.19-9.06,57.53-27.18s23.01-41.24,23.01-69.35s-7.67-51.23-23.01-69.35
	s-34.52-27.18-57.53-27.18s-42.19,9.06-57.53,27.18S121-24.65,121,3.46S128.67,54.69,144.01,72.81z M548.82,181.28L496.83,66.46
	h-27.27v114.82h-76.27v-355.65H512.6c30.4,0,55.89,11.6,76.49,34.8s30.89,52.59,30.89,88.15c0,21.34-4.55,40.9-13.64,58.68
	s-21.45,31.92-37.07,42.42l61.36,131.59L548.82,181.28z M469.56-90.54v79.77h42.19c9.37,0.34,17.04-3.22,23.01-10.67
	s8.95-17.11,8.95-28.96s-2.98-21.51-8.95-28.96s-13.64-11.18-23.01-11.18H469.56z M855.61-174.37v87.9H781.9v267.75h-76.27V-86.47
	h-73.72v-87.9H855.61L855.61-174.37z M1276.2-22.46v36.07c0,52.16-13.71,94.42-41.12,126.76c-27.41,32.35-62.99,48.52-106.74,48.52
	c-46.59,0-84.87-17.78-114.84-53.35S968.53,56.11,968.53,3.95s14.91-96.19,44.74-132.1c29.83-35.9,66.76-53.86,110.79-53.86
	c27.84,0,53.34,7.45,76.49,22.36c23.15,14.9,41.26,34.72,54.33,59.44l-64.77,44.2c-5.97-11.18-14.7-20.15-26.21-26.93
	c-11.51-6.77-24.5-10.16-38.99-10.16c-23.58,0-42.9,9.14-57.95,27.44c-15.05,18.29-22.57,41.66-22.57,70.11
	c0,27.44,7.46,50.64,22.37,69.61s35.86,28.45,62.85,28.45c34.66,0,57.53-15.58,68.6-46.74h-72.44v-78.24L1276.2-22.46L1276.2-22.46z
	 M1467.09,181.28L1415.1,66.46h-27.27v114.82h-76.27v-355.65h119.31c30.4,0,55.89,11.6,76.49,34.8s30.89,52.59,30.89,88.15
	c0,21.34-4.55,40.9-13.64,58.68s-21.45,31.92-37.07,42.42l61.36,131.59L1467.09,181.28z M1387.84-90.54v79.77h42.19
	c9.37,0.34,17.04-3.22,23.01-10.67s8.95-17.11,8.95-28.96s-2.98-21.51-8.95-28.96s-13.64-11.18-23.01-11.18H1387.84z M1827.38,135.3
	c-30.25,35.73-67.25,53.6-111,53.6s-80.75-17.87-111-53.6S1560,55.62,1560,3.46s15.13-96.11,45.38-131.84s67.25-53.6,111-53.6
	s80.75,17.87,111,53.6s45.38,79.68,45.38,131.84S1857.63,99.57,1827.38,135.3z M1658.84,72.81c15.34,18.12,34.52,27.18,57.53,27.18
	s42.19-9.06,57.53-27.18s23.01-41.24,23.01-69.35s-7.67-51.23-23.01-69.35s-34.52-27.18-57.53-27.18s-42.19,9.06-57.53,27.18
	s-23.01,41.24-23.01,69.35S1643.51,54.69,1658.84,72.81z M2106.91,154.86c-22.02,22.69-50.35,34.04-85.01,34.04
	s-62.99-11.35-85.01-34.04s-33.02-52.84-33.02-90.44v-238.79h76.27V55.79c0,29.81,13.92,44.71,41.76,44.71
	c27.84,0,41.76-14.9,41.76-44.71v-230.16h76.27V64.42C2139.94,102.02,2128.93,132.17,2106.91,154.86L2106.91,154.86z
	 M2299.72-174.37c30.11,0,55.39,11.69,75.85,35.06c20.45,23.37,30.68,53.18,30.68,89.42s-10.23,66.05-30.68,89.42
	s-45.74,35.06-75.85,35.06h-39.63v106.69h-76.27v-355.65H2299.72L2299.72-174.37z M2299.72-11.79c8.52,0,15.69-3.56,21.52-10.67
	c5.82-7.11,8.73-16.26,8.73-27.44s-2.91-20.24-8.73-27.18s-13-10.42-21.52-10.42h-39.63v75.7L2299.72-11.79L2299.72-11.79z"/>
<line class="st2" x1="0" y1="3.94" x2="300" y2="3.94"/>
<line class="st3" x1="47.84" y1="16.38" x2="252.16" y2="16.38"/>
</svg>
