<?xml version="1.0" encoding="utf-8"?>
<!-- Generator: Adobe Illustrator 27.0.0, SVG Export Plug-In . SVG Version: 6.00 Build 0)  -->
<svg version="1.1" id="Layer_1" xmlns="http://www.w3.org/2000/svg" xmlns:xlink="http://www.w3.org/1999/xlink" x="0px" y="0px"
	 viewBox="0 0 312.2 452.65" style="enable-background:new 0 0 312.2 452.65;" xml:space="preserve">
<style type="text/css">
	.st0{fill:#FFFFFF;stroke:#21244E;stroke-width:5;stroke-miterlimit:10;}
	.st1{fill:#E52821;}
	.st2{fill-rule:evenodd;clip-rule:evenodd;fill:#303030;}
	.st3{fill-rule:evenodd;clip-rule:evenodd;fill:#303030;stroke:#303030;stroke-width:0.5669;stroke-miterlimit:10;}
	.st4{fill:#3154A1;}
</style>
<path class="st0" d="M309.49,161.37c0,67.38-97.05,219.53-136.76,278.95c-7.92,11.86-25.34,11.86-33.26,0
	C99.76,380.89,2.71,228.75,2.71,161.37C2.71,76.65,71.39,7.98,156.1,7.98S309.49,76.65,309.49,161.37z"/>
<path class="st1" d="M74.69,151.29c-3.32,36.77,34.71,49.08,81.63,41.59l-0.19-16.63l58.94,39.83l-59.61,42.77l0.56-13.5
	C103.74,241.18,62.84,192.88,74.69,151.29z"/>
<path class="st2" d="M156.1,32.35c47.36,0,88.51,26.55,109.39,65.58l-8.65,4.57h-0.09c-19.24-35.88-57.09-60.29-100.65-60.29
	c-63.04,0-114.14,51.1-114.14,114.14s51.1,114.14,114.14,114.14c45.48,0,84.74-26.6,103.08-65.09l8.93,4.19
	c-19.92,41.84-62.59,70.76-112.01,70.76c-68.48,0-124-55.52-124-124S87.62,32.35,156.1,32.35z"/>
<path class="st3" d="M110.67,112.07c-5.14-3.7-8.95-6.43-11.44-8.19c-14.8,17.06-22.07,37.38-19.28,61.34
	c1.35,7.96,7.78,14.78,19.28,20.47c-11.88-10.95-15.77-26.01-11.67-45.19c0.77,7.78,4.9,16.09,12.39,24.91
	c-0.71,7.54-0.02,14.74,2.07,21.59c1.94,0.93,3.87,1.51,5.79,1.75c-2.03-6.26-3.01-12.46-2.94-18.59
	c7.49,6.08,15.81,10.45,24.97,13.11c-0.13,2.66,0.01,5.44,0.41,8.36c1.56,0.19,3.22,0.15,4.95,0c-0.25-1.89-0.36-4.25-0.31-7.06
	c5.23,1.32,10.64,2.12,16.23,2.39v-4.79c-6.9-0.57-12.33-1.51-16.3-2.82c0.02-8.95,0.98-16.94,2.88-23.97
	c11.56,3.34,23.6,3.34,36.11,0c1.5,7.09,2.44,15.13,2.82,24.1c-2.25,0.52-4.07,0.91-5.48,1.16c3.16,2.43,6.58,4.9,10.26,7.42v-4.88
	c9.72-3.09,18.11-7.5,25.16-13.21c0.1,7.48-1.43,15.43-4.6,23.85c-2.93,1.74-5.2,3.03-6.82,3.88c2.52,1.97,5.11,3.87,7.76,5.66
	c1.24-2.72,2.21-4.8,2.91-6.26c4.41-3.08,8.39-6.58,11.95-10.5c-2.74,6.23-7.06,12.24-12.96,18.02c1.78,1.45,3.59,2.77,5.45,3.94
	c8.78-9.51,14.88-19.87,18.27-31.07c3.91-15,4.43-25.99,1.57-32.98c-2.73-5.52-6.54-9.78-11.45-12.8
	c1.04,9.85-1.56,18.71-7.79,26.57c-0.33-6.64-2.84-15.06-7.54-25.25c1.2-2.67,2.05-5.09,2.57-7.26c-1.39-0.63-2.99-1.06-4.8-1.31
	c-0.16,1.06-0.47,2.11-0.92,3.15c-0.66-0.96-1.67-2.33-3.04-4.11c-3.07-0.54-5.49-0.84-7.28-0.89c3.2,3.29,5.79,6.79,7.78,10.5
	c-1.38,2.29-3.61,4.89-6.68,7.81c-3.8,3.26-8.31,5.91-13.55,7.95c-2.01-8.81-4.68-16.89-8.01-24.22c1.52-0.53,3.2-1.29,5.05-2.27
	c-3.94-0.13-8.76,0.68-14.46,2.43c-0.24,0.7-0.23,1.3,0.02,1.78c1.48-0.05,2.99-0.28,4.52-0.67c3.4,7.24,6.25,15.62,8.37,24.61
	c-10.98,3.3-22.49,3.18-34.41,0.08c1.88-6.6,3.48-11.84,4.79-15.72c-1.38-0.8-2.76-1.7-4.16-2.69c-1.96,4.82-3.71,10.43-5.26,16.83
	c-8.53-3.13-15.25-8.42-20.15-15.87c2.98-4.86,6.16-8.93,9.54-12.2c-1.53-1.25-2.89-2.25-4.08-2.99c-3.61,3.49-6.27,6.78-7.98,9.87
	C109.24,122.4,109.07,117.15,110.67,112.07L110.67,112.07z M106.12,110.38c-2.36,7.28-1.71,14.91,1.94,22.87
	c-3.28,5.71-5.82,14.06-7.6,25.07C89.16,143.61,88.01,119.94,106.12,110.38z M104.55,163.29c0.96-10.38,3.15-18.69,6.57-24.94
	c6.41,7.73,14.41,13.04,21.94,15.46c-1.94,6.66-2.97,14.81-3.1,24.44C119.57,175.16,111.1,170.17,104.55,163.29z M181.25,178.13
	c-0.28-8.51-1.21-16.58-2.79-24.22c10.03-4.49,17.29-9.72,21.78-15.71c3.69,7.63,5.77,16.06,6.23,25.29
	C199.43,170.3,191.03,175.18,181.25,178.13L181.25,178.13z M208.91,188.52c2.07-8.2,2.87-15.98,2.38-23.35
	c6.96-7.55,11.07-15.79,12.33-24.72C228.62,159.91,223.72,175.94,208.91,188.52z"/>
<path class="st4" d="M236.29,161.37c3.32-36.77-34.71-49.08-81.63-41.59l0.19,16.63L95.91,96.58l59.61-42.77l-0.56,13.5
	C207.24,71.48,248.13,119.78,236.29,161.37z"/>
<path class="st2" d="M156.2,280.23c-47.36,0-88.51-26.55-109.39-65.58l8.65-4.57h0.09c19.24,35.88,57.09,60.29,100.65,60.29
	c63.04,0,114.14-51.1,114.14-114.14S219.23,42.09,156.2,42.09c-45.48,0-84.74,26.6-103.08,65.09l-8.93-4.19
	c19.92-41.84,62.59-70.76,112.01-70.76c68.48,0,124,55.52,124,124S224.68,280.23,156.2,280.23z"/>
<path class="st2" d="M156.57,22.24c51.14,0,95.58,28.68,118.12,70.84l-3.11,1.65c-21.95-41.04-65.21-68.96-115-68.96
	c-71.99,0-130.34,58.35-130.34,130.34s58.35,130.34,130.34,130.34c51.96,0,96.82-30.41,117.75-74.4l3.19,1.5
	c-21.5,45.19-67.57,76.43-120.94,76.43c-73.93,0-133.86-59.93-133.86-133.86S82.64,22.24,156.57,22.24z"/>
<path class="st2" d="M156.75,290.21c-51.14,0-95.58-28.68-118.12-70.84l3.11-1.65c21.95,41.04,65.21,68.96,115,68.96
	c71.99,0,130.34-58.35,130.34-130.34S228.73,26.01,156.75,26.01c-51.96,0-96.82,30.41-117.75,74.4l-3.19-1.5
	c21.5-45.19,67.57-76.43,120.94-76.43c73.93,0,133.86,59.93,133.86,133.86S230.68,290.21,156.75,290.21z"/>
</svg>
