<?xml version="1.0" encoding="utf-8"?>
<!-- Generator: Adobe Illustrator 25.4.1, SVG Export Plug-In . SVG Version: 6.00 Build 0)  -->
<svg version="1.1" id="Layer_1" xmlns="http://www.w3.org/2000/svg" xmlns:xlink="http://www.w3.org/1999/xlink" x="0px" y="0px"
	 viewBox="0 0 48 48" style="enable-background:new 0 0 48 48;" xml:space="preserve">
<style type="text/css">
	.st0{fill:#FFFFFF;stroke:#FFFFFF;stroke-miterlimit:10;}
	.st1{fill-rule:evenodd;clip-rule:evenodd;fill:#37B73F;}
</style>
<circle class="st0" cx="24" cy="24" r="23.4"/>
<path class="st1" d="M34,14c-2.6-2.6-6.2-4.1-9.9-4.1c-7.7,0-14,6.3-14,14c0,2.5,0.6,4.9,1.9,7l-2,7.3l7.4-2
	c2.1,1.1,4.4,1.7,6.7,1.7l0,0c7.7,0,14-6.3,14-14C38.1,20.2,36.6,16.6,34,14 M24.1,35.5L24.1,35.5c-2.1,0-4.1-0.6-5.9-1.6l-0.4-0.3
	l-4.4,1.2l1.2-4.3l-0.3-0.4c-1.2-1.9-1.8-4-1.8-6.2c0-6.4,5.2-11.7,11.7-11.7c3.1,0,6.1,1.2,8.2,3.4c2.2,2.2,3.4,5.2,3.4,8.3
	C35.7,30.3,30.5,35.5,24.1,35.5 M30.5,26.8c-0.4-0.2-2.1-1-2.4-1.1s-0.6-0.2-0.8,0.2c-0.2,0.4-0.9,1.1-1.1,1.4
	c-0.2,0.2-0.4,0.3-0.8,0.1c-0.4-0.2-1.5-0.5-2.8-1.7c-1-0.9-1.7-2.1-2-2.4c-0.2-0.4,0-0.5,0.2-0.7s0.4-0.4,0.5-0.6s0.2-0.4,0.4-0.6
	c0.1-0.2,0.1-0.4,0-0.6s-0.8-1.9-1.1-2.6c-0.3-0.7-0.6-0.6-0.8-0.6c-0.2,0-0.4,0-0.7,0c-0.4,0-0.7,0.2-0.9,0.4
	c-0.3,0.4-1.2,1.2-1.2,2.9s1.3,3.4,1.4,3.6c0.2,0.2,2.5,3.8,6,5.3c0.8,0.4,1.5,0.6,2,0.7c0.8,0.3,1.6,0.2,2.2,0.1
	c0.7-0.1,2.1-0.8,2.4-1.7c0.3-0.8,0.3-1.5,0.2-1.7C31,27.1,30.8,27,30.5,26.8"/>
</svg>
